**ABCDEFGHIJKLMNOPQRSTUVWXYZabcdefghijklmnopqrstuvwxyz**************************
**PARASOLID !"#$%&'()*+,-./:;<=>?@[\]^_`{|}~0123456789**************************
**PART1;
MC=AMD64;
MC_MODEL=Intel64 Family 6 Model 142 Stepping 9, GenuineIntel;
MC_ID=unknown;
OS=Windows_NT;
OS_RELEASE=unknown;
FRU=Parasolid Version 32.1, build 255,  1- 1-2021;
APPL=SOLIDWORKS 2021-2021301;
SITE=;
USER=unknown;
FORMAT=text;
GUISE=transmit;
KEY=Rear_cover_02;
FILE=Rear_cover_02.x_t;
DATE=Fri Jan 26 10:57:10 2024;
**PART2;
SCH=SCH_3201255_32001;
USFLD_SIZE=0;
**PART3;
**END_OF_HEADER*****************************************************************
T51 : TRANSMIT FILE created by modeller version 320125523 SCH_3201255_32001_1300
6229 0 12 34 CCCCCCI4 mesh1006 0 I8 polyline1008 0 CCCCCCCDI5 owner1040 0 CCCCCC
I13 boundary_mesh1006 0 I17 boundary_polyline1008 0 CCCA16 index_map_offset0 0 1
 dA9 index_map82 0 A17 node_id_index_map82 0 A20 schema_embedding_map82 0 A5 chi
ld12 0 A14 lowest_node_id0 0 1 dA16 mesh_offset_data206 0 Z1 629 2 3 0 0 0 0 0 0
 1e3 1e-8 0 4 0 1 0 1 1 5 6 7 0 0 0 8 9 0 0 0 0 0 0 0 0 81 255 2 2 611 10 1 11 0
 0 0 0 12 70 11 CI9 list_type0 0 1 uI10 notransmit0 0 1 lCCCDCCDI12 finger_index
0 0 1 dI12 finger_block1012 0 CZ3 0 4 T1 0 0 9 20 1 13 13 13 255 5 111 0 1 0 14
 0 0 15 0 54 255 6 473 0 16 17 0 0 +0 .03703297805996445 0 0 1 0 .00362668242028
9225 .005 0 0 1 31 255 7 457 0 9 18 0 0 +0 .03879377443440925 0 0 1 0 0 0 1 .008
30638285169956 19 8 CCCCCCCA5 owner12 0 Z8 115 0 1 15 0 19 V0 16 255 9 454 0 ?20
 0 21 7 0 0 1 17 255 20 0 22 20 20 0 23 9 0 0 +16 21 373 0 ?24 9 25 18 0 0 1 17
 24 0 26 24 24 0 27 21 0 0 +16 25 367 0 ?28 21 29 30 0 0 1 31 18 376 0 21 30 7 0
 +0 .0065 0 0 -1 0 0 0 -1 .03 31 30 370 0 25 31 18 0 -0 .0234435221753331 0 0 -1
 0 0 0 -1 .0178216646901942 31 31 364 0 29 32 30 0 -0 .0215 0 0 -1 0 0 0 -1 .024
 16 29 361 0 ?33 25 34 31 0 0 1 31 32 358 0 34 35 31 0 +0 .0215 0 0 -1 0 0 0 -1
 .0206294849490404 16 34 355 0 ?36 29 37 32 0 0 1 31 35 352 0 37 38 32 0 +0 .018
5 0 0 -1 0 0 0 -1 .027 16 37 349 0 ?39 34 40 35 0 0 1 31 38 346 0 40 41 35 0 -0
 .0095 0 0 -1 0 0 0 -1 .027 16 40 343 0 ?42 37 43 38 0 0 1 31 41 340 0 43 44 38
 0 -0 .052 0 0 -1 0 0 0 -1 .00649656633425238 16 43 337 0 ?45 40 46 41 0 0 1 31
 44 221 0 46 47 41 0 +0 -385185988877447e-48 0 0 -1 0 0 0 -1 .022 16 46 184 0 ?4
8 43 49 44 0 0 1 31 47 220 0 49 50 44 0 +0 -195156391047391e-32 0 0 -1 0 0 0 -1
 .0386 16 49 179 0 ?51 46 52 47 0 0 1 31 50 219 0 52 53 47 0 +0 .0016 0 0 -1 0 0
 0 -1 .0402 16 52 174 0 ?54 49 55 50 0 0 1 31 53 218 0 55 56 50 0 +0 .004 0 0 -1
 0 0 0 -1 .0402 16 55 169 0 ?57 52 58 53 0 0 1 31 56 217 0 58 59 53 0 +0 .004 0
 0 -1 0 0 0 -1 .0428 16 58 164 0 ?60 55 61 56 0 0 1 31 59 216 0 61 62 56 0 +0 .0
065 0 0 -1 0 0 0 -1 .0428 16 61 159 0 ?63 58 64 59 0 0 1 31 62 212 0 64 65 59 0
 +0 .0519386847076613 0 0 -1 0 0 0 -1 .0071 16 64 139 0 ?66 61 67 62 0 0 1 31 65
 210 0 67 68 62 0 +0 .052 0 0 -1 0 0 0 -1 .0042 16 67 129 0 ?69 64 70 65 0 0 1 3
1 68 209 0 70 71 65 0 +0 .042 0 0 -1 0 0 0 -1 .0042 16 70 124 0 ?72 67 73 68 0 0
 1 31 71 207 0 73 0 68 0 +0 .0024 0 0 -1 0 0 0 -1 .022 16 73 117 0 ?74 70 0 71 0
 0 1 17 74 0 75 74 74 0 76 73 0 0 +15 255 75 121 0 74 77 0 17 76 0 78 76 76 0 74
 73 0 0 -15 78 296 0 76 14 79 14 255 14 190 80 ?81 0 78 5 82 -0 0 81 0 19 15 79
 189 0 48 14 0 17 48 0 79 48 48 0 83 46 0 0 +17 83 0 84 83 83 0 48 46 0 0 -15 84
 282 0 83 81 85 14 81 187 86 ?87 14 84 5 88 -0 0 87 14 19 15 85 186 0 51 81 0 17
 51 0 85 51 51 0 89 49 0 0 +17 89 0 90 89 89 0 51 49 0 0 -15 90 283 0 89 87 91 1
4 87 182 92 ?93 81 90 5 94 -0 0 93 81 19 15 91 181 0 54 87 0 17 54 0 91 54 54 0
 95 52 0 0 +17 95 0 96 95 95 0 54 52 0 0 -15 96 284 0 95 93 97 14 93 177 98 ?99
 87 96 5 100 -0 0 99 87 19 15 97 176 0 57 93 0 17 57 0 97 57 57 0 101 55 0 0 +17
 101 0 102 101 101 0 57 55 0 0 -15 102 285 0 101 99 103 14 99 172 104 ?105 93 10
2 5 106 -0 0 105 93 19 15 103 171 0 60 99 0 17 60 0 103 60 60 0 107 58 0 0 +17 1
07 0 108 107 107 0 60 58 0 0 -15 108 286 0 107 105 109 14 105 167 110 ?111 99 10
8 5 112 -0 0 111 99 19 15 109 166 0 63 105 0 17 63 0 109 63 63 0 113 61 0 0 +17
 113 0 114 113 113 0 63 61 0 0 -15 114 287 0 113 111 0 14 111 162 115 ?116 105 2
6 5 117 -0 0 116 105 19 81 1 115 618 118 111 119 0 110 120 121 14 116 157 120 ?1
22 111 123 5 124 -0 0 122 111 19 15 26 374 0 24 111 114 50 255 117 200 0 111 124
 112 0 +-.0428 .0065 0 0 -1 0 0 0 -1 13 19 114 0 0 0 0 0 0 8 14 51 255 124 199 0
 116 125 117 0 -0 0 0 0 -1 0 .027 0 0 -1 51 112 201 0 105 117 106 0 -0 0 0 0 -1
 0 .0428 0 0 -1 50 106 202 0 99 112 100 0 +-.0402 .004 0 0 1 0 0 0 1 51 100 203
 0 93 106 94 0 -0 0 0 0 -1 0 .0402 0 0 -1 54 94 204 0 87 100 88 0 -0 .0016 0 0 -
1 0 .0386 .0016 0 0 -1 50 88 205 0 81 94 82 0 +-.022 -975781955236954e-33 0 0 1
 0 0 0 1 51 82 206 0 14 88 126 0 +0 0 0 0 -1 0 .022 0 0 -1 54 126 395 0 127 82 1
28 0 +0 .049 0 0 1 0 .00649656633425238 .003 0 0 1 14 127 388 129 ?130 77 131 5
 126 +0 0 130 77 19 54 128 408 0 130 126 132 0 +0 .0185 0 0 -1 0 .024 .003 0 0 -
1 14 130 401 133 ?134 127 135 5 128 +0 0 134 127 19 54 132 421 0 134 128 17 0 +0
 .0245 0 0 -1 0 .0206294849490404 .003 0 0 -1 14 134 414 136 ?137 130 138 5 132
 -0 0 137 130 19 54 17 434 0 137 132 6 0 +0 .0095 0 0 -1 0 .03 .003 0 0 -1 14 13
7 427 139 ?16 134 140 5 17 -0 0 16 134 19 81 1 139 623 118 137 141 0 136 142 143
 14 16 466 142 ?0 137 144 5 6 -0 0 0 137 19 15 140 428 0 145 137 146 17 145 0 14
0 145 145 0 42 40 0 0 -15 146 429 0 27 137 0 17 27 0 146 27 27 0 24 21 0 0 -17 4
2 0 147 42 42 0 145 40 0 0 +15 147 344 0 42 116 0 81 1 142 624 118 16 148 0 139
 149 150 15 144 467 0 23 16 151 17 23 0 144 23 23 0 20 9 0 0 -15 151 468 0 152 1
6 0 17 152 0 151 152 152 0 72 70 0 0 -17 72 0 153 72 72 0 152 70 0 0 +15 153 131
 0 72 154 0 14 154 132 149 ?77 155 156 5 157 -0 0 77 155 19 81 1 149 625 118 154
 158 0 142 159 160 14 77 122 159 ?127 154 22 5 161 -0 0 127 154 19 14 155 137 16
2 ?154 163 164 5 165 -0 0 154 163 19 15 156 293 0 166 154 153 51 157 194 0 154 1
61 165 0 +0 0 0 0 -1 0 .0042 0 0 -1 52 255 161 192 0 77 0 157 0 +0 .0024 0 0 -1
 0 .022 .3521592748889595 .935940086282067 0 0 -1 50 165 195 0 155 157 167 0 +-.
0071 .052 0 0 -1 0 0 0 -1 52 167 197 0 163 165 125 0 -0 .0519386847076613 0 0 -1
 0 .0071 .3521592748889595 .935940086282067 0 0 -1 14 163 147 168 ?155 122 169 5
 167 -0 0 155 122 19 50 125 198 0 122 167 124 0 +-.027 .0215 0 0 -1 0 0 0 -1 14
 122 152 170 ?163 116 171 5 125 -0 0 163 116 19 81 1 170 629 118 122 172 0 168 0
 173 15 171 362 0 33 122 174 17 33 0 171 33 33 0 175 29 0 0 +15 174 356 0 36 122
 0 17 36 0 174 36 36 0 176 34 0 0 +17 176 0 177 176 176 0 36 34 0 0 -15 177 416
 0 176 134 0 17 175 0 135 175 175 0 33 29 0 0 -15 135 402 0 175 130 178 15 178 4
03 0 179 130 0 17 179 0 178 179 179 0 39 37 0 0 -17 39 0 123 39 39 0 179 37 0 0
 +15 123 350 0 39 116 147 80 255 1 118 180 181 9000 1 1 1 1 1 1 1 1 0 FFFFTFTFFF
FFFF1 81 1 172 564 182 122 0 170 183 184 185 81 1 168 628 118 163 184 0 162 170
 186 82 255 1 173 286851283 81 1 184 565 182 163 0 168 172 187 188 81 1 162 627
 118 155 187 0 159 168 189 82 1 186 286261459 81 1 187 566 182 155 0 162 184 158
 190 81 1 159 626 118 77 191 0 149 162 192 82 1 189 285081811 81 1 191 568 182 7
7 0 159 158 193 194 82 1 192 283312340 80 1 182 0 195 8001 0 0 0 0 3 5 0 0 0 FFF
FTFTFFFFFFF2 81 1 158 567 182 154 0 149 187 191 196 81 1 193 569 182 127 0 129 1
91 197 198 83 255 3 194 .792156862745098 .819607843137255 .933333333333333 81 1
 129 620 118 127 193 0 120 133 199 81 1 197 570 182 130 0 133 193 200 201 83 3 1
98 .792156862745098 .819607843137255 .933333333333333 81 1 133 621 118 130 197 0
 129 136 202 81 1 200 571 182 134 0 136 197 141 203 83 3 201 .792156862745098 .8
19607843137255 .933333333333333 81 1 136 622 118 134 200 0 133 139 204 81 1 141
 572 182 137 0 139 200 148 205 83 3 203 .792156862745098 .819607843137255 .93333
3333333333 81 1 148 573 182 16 0 142 141 0 206 83 3 205 .792156862745098 .819607
843137255 .933333333333333 83 3 206 .792156862745098 .819607843137255 .933333333
333333 82 1 204 306315475 82 1 202 305070291 81 1 120 619 118 116 183 0 115 129
 207 82 1 199 303825107 81 1 183 563 182 116 0 120 119 172 208 82 1 207 28744110
7 81 1 119 562 182 111 0 115 209 183 210 83 3 208 .792156862745098 .819607843137
255 .933333333333333 81 1 209 561 182 105 0 110 211 119 212 83 3 210 .7921568627
45098 .819607843137255 .933333333333333 81 1 110 617 118 105 209 0 104 115 213 8
1 1 211 560 182 99 0 104 214 209 215 83 3 212 .792156862745098 .819607843137255
 .933333333333333 81 1 104 616 118 99 211 0 98 110 216 81 1 214 559 182 93 0 98
 217 211 218 83 3 215 .792156862745098 .819607843137255 .933333333333333 81 1 98
 615 118 93 214 0 92 104 219 81 1 217 558 182 87 0 92 220 214 221 83 3 218 .7921
56862745098 .819607843137255 .933333333333333 81 1 92 614 118 87 217 0 86 98 222
 81 1 220 557 182 81 0 86 223 217 224 83 3 221 .792156862745098 .819607843137255
 .933333333333333 81 1 86 613 118 81 220 0 80 92 225 81 1 223 556 182 14 0 80 0
 220 226 83 3 224 .792156862745098 .819607843137255 .933333333333333 81 1 80 612
 118 14 223 0 0 86 227 83 3 226 .792156862745098 .819607843137255 .9333333333333
33 82 1 227 291307730 82 1 225 290980050 82 1 222 290390226 82 1 219 289800402 8
2 1 216 289210578 82 1 213 288620754 83 3 196 .792156862745098 .819607843137255
 .933333333333333 79 255 15 195 SDL/TYSA_COLOUR83 3 190 .792156862745098 .819607
843137255 .933333333333333 83 3 188 .792156862745098 .819607843137255 .933333333
333333 83 3 185 .792156862745098 .819607843137255 .933333333333333 79 14 181 SWE
ntUnchanged15 169 368 0 28 163 228 17 28 0 169 28 28 0 229 25 0 0 +15 228 146 0
 66 163 0 17 66 0 228 66 66 0 230 64 0 0 +17 230 0 231 230 230 0 66 64 0 0 -15 2
31 390 0 230 127 0 17 229 0 138 229 229 0 28 25 0 0 -15 138 415 0 229 134 177 17
 166 0 156 166 166 0 69 67 0 0 -17 69 0 232 69 69 0 166 67 0 0 +15 232 136 0 69
 155 0 15 164 338 0 45 155 232 17 45 0 164 45 45 0 233 43 0 0 +17 233 0 131 233
 233 0 45 43 0 0 -15 131 389 0 233 127 231 15 22 455 0 20 77 75 82 1 160 2844919
86 82 1 150 316735700 82 1 143 307560659 82 1 121 288030931 19 15 110 0 1 0 8 5
 S0 74 4 CI16 index_map_offset0 0 1 dCCZ20 13 9 0 0 234 235 170 236 237 238 11 1
48 2 0 0 0 0 0 0 0 0 0 0 0 81 2 234 312 239 1 0 235 0 0 0 240 81 2 235 316 241 1
 234 236 0 0 0 242 81 1 236 478 243 1 235 237 0 0 244 81 2 237 479 245 1 236 238
 0 0 0 0 81 2 238 499 246 1 237 11 0 0 247 0 81 2 11 555 248 1 238 2 0 0 0 249 8
0 2 248 250 251 9000 0 0 0 0 3 5 0 0 0 FFTFFFFFFFFFFF9 1 82 1 249 1 79 24 251 BO
DY_IN_LIGHTWEIGHT_PERM80 2 246 252 253 8004 0 0 0 0 3 5 0 0 0 FFTFFFFFFFFFFF2 3
 83 1 247 78e2 79 16 253 SDL/TYSA_DENSITY80 2 245 254 255 9000 0 0 0 0 3 5 0 0 0
 FFTFFFFFFFFFFF9 1 79 16 255 BODY_RECIPE_200180 1 243 256 257 9000 1 1 1 1 1 1 1
 1 0 FFTFFFFFFFFFFF1 82 1 244 4196 79 10 257 BODY_MATCH80 2 241 258 259 9000 0 0
 0 0 3 5 0 0 0 FFTFFFFFFFFFFF9 1 82 1 242 101 79 30 259 LAST_BODY_MODIFYING_FEAT
URE_ID80 2 239 260 261 9000 0 0 0 0 3 5 0 0 0 FFTFFFFFFFFFFT9 1 82 1 240 182 79
 19 261 ENT_TIME_STAMP_200180 2 10 262 263 9000 0 0 0 0 3 5 0 0 0 FFTFFFFFFFFFFF
9 1 82 1 12 103 79 12 263 ATOM_ID_20011 0 
