**ABCDEFGHIJKLMNOPQRSTUVWXYZabcdefghijklmnopqrstuvwxyz**************************
**PARASOLID !"#$%&'()*+,-./:;<=>?@[\]^_`{|}~0123456789**************************
**PART1;
MC=AMD64;
MC_MODEL=Intel64 Family 6 Model 142 Stepping 9, GenuineIntel;
MC_ID=unknown;
OS=Windows_NT;
OS_RELEASE=unknown;
FRU=Parasolid Version 32.1, build 255,  1- 1-2021;
APPL=SOLIDWORKS 2021-2021301;
SITE=;
USER=unknown;
FORMAT=text;
GUISE=transmit;
KEY=Front_cover_02;
FILE=Front_cover_02.x_t;
DATE=Fri Jan 26 10:58:10 2024;
**PART2;
SCH=SCH_3201255_32001;
USFLD_SIZE=0;
**PART3;
**END_OF_HEADER*****************************************************************
T51 : TRANSMIT FILE created by modeller version 320125523 SCH_3201255_32001_1300
6229 0 12 34 CCCCCCI4 mesh1006 0 I8 polyline1008 0 CCCCCCCDI5 owner1040 0 CCCCCC
I13 boundary_mesh1006 0 I17 boundary_polyline1008 0 CCCA16 index_map_offset0 0 1
 dA9 index_map82 0 A17 node_id_index_map82 0 A20 schema_embedding_map82 0 A5 chi
ld12 0 A14 lowest_node_id0 0 1 dA16 mesh_offset_data206 0 Z1 1346 2 3 0 0 0 0 0
 0 1e3 1e-8 0 4 0 1 0 1 1 5 6 7 0 0 0 8 9 0 0 0 0 0 0 0 0 81 255 2 2 1337 10 1 1
1 0 0 0 0 12 70 11 CI9 list_type0 0 1 uI10 notransmit0 0 1 lCCCDCCDI12 finger_in
dex0 0 1 dI12 finger_block1012 0 CZ3 0 4 T1 0 0 9 20 1 13 13 13 255 5 76 0 1 0 1
4 0 0 15 0 54 255 6 254 0 16 17 0 0 +0 .0059 0 0 -1 0 .0348 .003 0 0 -1 31 255 7
 238 0 9 18 0 0 -0 .0059 0 0 -1 0 0 0 -1 .0318 19 8 CCCCCCCA5 owner12 0 Z8 80 0
 1 15 0 19 V0 16 255 9 235 0 ?20 0 21 7 0 0 1 17 255 20 0 22 20 20 0 23 9 0 0 +1
6 21 124 0 ?24 9 25 18 0 0 1 17 24 0 26 24 24 0 27 21 0 0 +16 25 119 0 ?28 21 29
 30 0 0 1 31 18 151 0 21 30 7 0 +0 0 0 0 -1 0 0 0 -1 .0353 31 30 150 0 25 31 18
 0 +0 -600076931582203e-33 0 0 -1 0 0 0 -1 .0402 31 31 149 0 29 32 30 0 +0 .004
 0 0 -1 0 0 0 -1 .0402 16 29 114 0 ?33 25 34 31 0 0 1 31 32 148 0 34 35 31 0 +0
 .004 0 0 -1 0 0 0 -1 .0426 16 34 109 0 ?36 29 37 32 0 0 1 31 35 147 0 37 38 32
 0 +0 .0065 0 0 -1 0 0 0 -1 .0426 16 37 104 0 ?39 34 40 35 0 0 1 31 38 143 0 40
 41 35 0 +0 .0035 0 0 -1 0 0 0 -1 .0318 16 40 84 0 ?42 37 43 38 0 0 1 31 41 142
 0 43 44 38 0 +0 .0035 0 0 -1 0 0 0 -1 .0353 16 43 82 0 ?45 40 46 41 0 0 1 31 44
 1150 0 46 0 41 0 -0 .0065 0 0 1 0 0 0 1 .0318606123086602 16 46 1042 0 ?47 43 0
 44 0 0 1 17 47 0 48 47 47 0 49 46 0 0 +15 255 48 1121 0 47 50 0 17 49 0 51 49 4
9 0 47 46 0 0 -15 51 1038 0 49 16 52 14 255 16 247 53 ?0 54 51 5 6 +0 0 0 54 19
 15 52 248 0 23 16 0 17 23 0 52 23 23 0 20 9 0 0 -81 1 53 1338 55 16 56 0 0 57 5
8 14 54 87 57 ?16 59 60 5 61 -0 0 16 59 19 13 19 79 0 0 0 0 0 0 8 14 14 14 130 6
2 ?63 0 64 5 17 -0 0 63 0 19 81 1 62 1340 55 14 65 0 57 66 67 14 63 127 66 ?68 1
4 69 5 70 -0 0 68 14 19 15 64 201 0 71 14 26 51 255 17 141 0 14 70 6 0 +0 0 0 0
 -1 0 .0353 0 0 -1 50 255 70 140 0 63 72 17 0 +-.0353 -3000384657911015e-34 0 0
 1 0 0 0 1 51 72 139 0 68 73 70 0 -0 0 0 0 -1 0 .0402 0 0 -1 14 68 122 74 ?75 63
 76 5 72 -0 0 75 63 19 50 73 138 0 75 77 72 0 +-.0402 .004 0 0 1 0 0 0 1 14 75 1
17 78 ?79 68 80 5 73 -0 0 79 68 19 51 77 137 0 79 81 73 0 -0 0 0 0 -1 0 .0426 0
 0 -1 14 79 112 82 ?50 75 83 5 77 -0 0 50 75 19 50 81 136 0 50 84 77 0 +-.0426 .
0065 0 0 -1 0 0 0 -1 14 50 107 85 ?59 79 86 5 81 -0 0 59 79 19 51 84 133 0 59 61
 81 0 +0 0 0 0 -1 0 .0318 0 0 -1 14 59 92 87 ?54 50 22 5 84 -0 0 54 50 19 50 61
 132 0 54 0 84 0 +-.0353 .0035 0 0 1 0 0 0 1 81 1 87 1346 55 59 88 0 85 0 89 15
 22 236 0 20 59 90 15 90 91 0 42 59 0 17 42 0 90 42 42 0 91 40 0 0 +17 91 0 60 9
1 91 0 42 40 0 0 -15 60 200 0 91 54 92 15 92 86 0 45 54 0 17 45 0 92 45 45 0 71
 43 0 0 +17 71 0 64 71 71 0 45 43 0 0 -80 255 1 55 93 94 9000 1 1 1 1 1 1 1 1 0
 FFFFTFTFFFFFFF1 81 1 88 1313 95 59 0 87 96 97 98 81 1 85 1345 55 50 96 0 82 87
 99 82 255 1 89 280166636 81 1 96 1312 95 50 0 85 100 88 101 81 1 82 1344 55 79
 100 0 78 85 102 82 1 99 281936112 81 1 100 1311 95 79 0 82 103 96 104 81 1 78 1
343 55 75 103 0 74 82 105 82 1 102 282525931 81 1 103 1310 95 75 0 78 106 100 10
7 81 1 74 1342 55 68 106 0 66 78 108 82 1 105 283115755 81 1 106 1309 95 68 0 74
 109 103 110 81 1 66 1341 55 63 109 0 62 74 111 82 1 108 283705579 81 1 109 1308
 95 63 0 66 65 106 112 82 1 111 284295403 80 1 95 0 113 8001 0 0 0 0 3 5 0 0 0 F
FFFTFTFFFFFFF2 81 1 65 1307 95 14 0 62 0 109 114 83 255 3 112 .792156862745098 .
819607843137255 .933333333333333 83 3 114 .792156862745098 .819607843137255 .933
333333333333 79 255 15 113 SDL/TYSA_COLOUR83 3 110 .792156862745098 .81960784313
7255 .933333333333333 83 3 107 .792156862745098 .819607843137255 .93333333333333
3 83 3 104 .792156862745098 .819607843137255 .933333333333333 83 3 101 .79215686
2745098 .819607843137255 .933333333333333 81 1 97 1314 95 54 0 57 88 56 115 83 3
 98 .792156862745098 .819607843137255 .933333333333333 81 1 57 1339 55 54 97 0 5
3 62 116 81 1 56 1315 95 16 0 53 97 0 117 83 3 115 .792156862745098 .81960784313
7255 .933333333333333 83 3 117 .792156862745098 .819607843137255 .93333333333333
3 82 1 116 279576811 79 14 94 SWEntUnchanged15 86 196 0 118 50 48 17 118 0 86 11
8 118 0 39 37 0 0 -17 39 0 119 39 39 0 118 37 0 0 +15 119 111 0 39 79 0 15 83 19
5 0 120 79 119 17 120 0 83 120 120 0 36 34 0 0 -17 36 0 121 36 36 0 120 34 0 0 +
15 121 116 0 36 75 0 15 80 194 0 122 75 121 17 122 0 80 122 122 0 33 29 0 0 -17
 33 0 123 33 33 0 122 29 0 0 +15 123 121 0 33 68 0 15 76 193 0 124 68 123 17 124
 0 76 124 124 0 28 25 0 0 -17 28 0 125 28 28 0 124 25 0 0 +15 125 126 0 28 63 0
 15 26 129 0 24 14 0 15 69 192 0 27 63 125 17 27 0 69 27 27 0 24 21 0 0 -82 1 67
 284623083 82 1 58 293798128 19 15 75 0 1 0 8 5 S0 74 4 CI16 index_map_offset0 0
 1 dCCZ20 13 9 0 0 126 127 87 128 129 130 11 56 2 0 0 0 0 0 0 0 0 0 0 0 81 2 126
 212 131 1 0 127 0 0 0 132 81 2 127 216 133 1 126 128 0 0 0 134 81 1 128 1260 13
5 1 127 129 0 0 136 81 2 129 1272 137 1 128 130 0 0 138 0 81 2 130 1301 139 1 12
9 11 0 0 0 140 81 2 11 1304 141 1 130 2 0 0 0 0 80 2 141 142 143 9000 0 0 0 0 3
 5 0 0 0 FFTFFFFFFFFFFF9 1 79 16 143 BODY_RECIPE_200180 2 139 144 145 9000 0 0 0
 0 3 5 0 0 0 FFTFFFFFFFFFFF9 1 82 1 140 1 79 24 145 BODY_IN_LIGHTWEIGHT_PERM80 2
 137 146 147 8004 0 0 0 0 3 5 0 0 0 FFTFFFFFFFFFFF2 3 83 1 138 78e2 79 16 147 SD
L/TYSA_DENSITY80 1 135 148 149 9000 1 1 1 1 1 1 1 1 0 FFTFFFFFFFFFFF1 82 1 136 4
174 79 10 149 BODY_MATCH80 2 133 150 151 9000 0 0 0 0 3 5 0 0 0 FFTFFFFFFFFFFF9
 1 82 1 134 149 79 30 151 LAST_BODY_MODIFYING_FEATURE_ID80 2 131 152 153 9000 0
 0 0 0 3 5 0 0 0 FFTFFFFFFFFFFT9 1 82 1 132 196 79 19 153 ENT_TIME_STAMP_200180
 2 10 154 155 9000 0 0 0 0 3 5 0 0 0 FFTFFFFFFFFFFF9 1 82 1 12 105 79 12 155 ATO
M_ID_20011 0 
