  0
SECTION
  2
HEADER
  9
$ACADVER
  1
AC1015
  9
$ACADMAINTVER
 70
     6
  9
$DWGCODEPAGE
  3
ANSI_1251
  9
$INSBASE
 10
0.0
 20
0.0
 30
0.0
  9
$EXTMIN
 10
-50.0
 20
-50.0
 30
0.0
  9
$EXTMAX
 10
50.0
 20
50.0
 30
0.0
  9
$LIMMIN
 10
0.0
 20
0.0
  9
$LIMMAX
 10
420.0
 20
297.0
  9
$ORTHOMODE
 70
     0
  9
$REGENMODE
 70
     1
  9
$FILLMODE
 70
     1
  9
$QTEXTMODE
 70
     0
  9
$MIRRTEXT
 70
     1
  9
$LTSCALE
 40
1.0
  9
$ATTMODE
 70
     1
  9
$TEXTSIZE
 40
4.0
  9
$TRACEWID
 40
1.0
  9
$TEXTSTYLE
  7
Standard
  9
$CLAYER
  8
0
  9
$CELTYPE
  6
ByLayer
  9
$CECOLOR
 62
   256
  9
$CELTSCALE
 40
1.0
  9
$DISPSILH
 70
     0
  9
$DIMSCALE
 40
1.0
  9
$DIMASZ
 40
6.0
  9
$DIMEXO
 40
1.0
  9
$DIMDLI
 40
3.75
  9
$DIMRND
 40
0.0
  9
$DIMDLE
 40
0.0
  9
$DIMEXE
 40
1.0
  9
$DIMTP
 40
0.0
  9
$DIMTM
 40
0.0
  9
$DIMTXT
 40
4.0
  9
$DIMCEN
 40
2.5
  9
$DIMTSZ
 40
0.0
  9
$DIMTOL
 70
     0
  9
$DIMLIM
 70
     0
  9
$DIMTIH
 70
     1
  9
$DIMTOH
 70
     1
  9
$DIMSE1
 70
     0
  9
$DIMSE2
 70
     0
  9
$DIMTAD
 70
     1
  9
$DIMZIN
 70
     0
  9
$DIMBLK
  1

  9
$DIMASO
 70
     1
  9
$DIMSHO
 70
     1
  9
$DIMPOST
  1

  9
$DIMAPOST
  1

  9
$DIMALT
 70
     0
  9
$DIMALTD
 70
     3
  9
$DIMALTF
 40
0.0393700787
  9
$DIMLFAC
 40
1.0
  9
$DIMTOFL
 70
     1
  9
$DIMTVP
 40
0.0
  9
$DIMTIX
 70
     0
  9
$DIMSOXD
 70
     0
  9
$DIMSAH
 70
     0
  9
$DIMBLK1
  1

  9
$DIMBLK2
  1

  9
$DIMSTYLE
  2
ISO-25
  9
$DIMCLRD
 70
     0
  9
$DIMCLRE
 70
     0
  9
$DIMCLRT
 70
     0
  9
$DIMTFAC
 40
1.0
  9
$DIMGAP
 40
3.0
  9
$DIMJUST
 70
     0
  9
$DIMSD1
 70
     0
  9
$DIMSD2
 70
     0
  9
$DIMTOLJ
 70
     0
  9
$DIMTZIN
 70
     0
  9
$DIMALTZ
 70
     0
  9
$DIMALTTZ
 70
     0
  9
$DIMUPT
 70
     0
  9
$DIMDEC
 70
     2
  9
$DIMTDEC
 70
     4
  9
$DIMALTU
 70
     2
  9
$DIMALTTD
 70
     3
  9
$DIMTXSTY
  7
Standard
  9
$DIMAUNIT
 70
     0
  9
$DIMADEC
 70
     2
  9
$DIMALTRND
 40
0.0
  9
$DIMAZIN
 70
     0
  9
$DIMDSEP
 70
    44
  9
$DIMATFIT
 70
     3
  9
$DIMFRAC
 70
     0
  9
$DIMLDRBLK
  1

  9
$DIMLUNIT
 70
     2
  9
$DIMLWD
 70
    -2
  9
$DIMLWE
 70
    -2
  9
$DIMTMOVE
 70
     0
  9
$LUNITS
 70
     2
  9
$LUPREC
 70
     2
  9
$SKETCHINC
 40
1.0
  9
$FILLETRAD
 40
10.0
  9
$AUNITS
 70
     1
  9
$AUPREC
 70
     2
  9
$MENU
  1
.
  9
$ELEVATION
 40
0.0
  9
$PELEVATION
 40
0.0
  9
$THICKNESS
 40
0.0
  9
$LIMCHECK
 70
     0
  9
$CHAMFERA
 40
0.0
  9
$CHAMFERB
 40
0.0
  9
$CHAMFERC
 40
0.0
  9
$CHAMFERD
 40
0.0
  9
$SKPOLY
 70
     0
  9
$TDCREATE
 40
2460257.454854514
  9
$TDUCREATE
 40
2460257.37152118
  9
$TDUPDATE
 40
2460257.454906065
  9
$TDUUPDATE
 40
2460257.371572732
  9
$TDINDWG
 40
0.0000000116
  9
$TDUSRTIMER
 40
0.0000000116
  9
$USRTIMER
 70
     1
  9
$ANGBASE
 50
0.0
  9
$ANGDIR
 70
     0
  9
$PDMODE
 70
     0
  9
$PDSIZE
 40
-1.0
  9
$PLINEWID
 40
0.0
  9
$SPLFRAME
 70
     0
  9
$SPLINETYPE
 70
     6
  9
$SPLINESEGS
 70
     8
  9
$HANDSEED
  5
19B
  9
$SURFTAB1
 70
     6
  9
$SURFTAB2
 70
     6
  9
$SURFTYPE
 70
     6
  9
$SURFU
 70
     6
  9
$SURFV
 70
     6
  9
$UCSBASE
  2

  9
$UCSNAME
  2

  9
$UCSORG
 10
0.0
 20
0.0
 30
0.0
  9
$UCSXDIR
 10
1.0
 20
0.0
 30
0.0
  9
$UCSYDIR
 10
0.0
 20
1.0
 30
0.0
  9
$UCSORTHOREF
  2

  9
$UCSORTHOVIEW
 70
     0
  9
$UCSORGTOP
 10
0.0
 20
0.0
 30
0.0
  9
$UCSORGBOTTOM
 10
0.0
 20
0.0
 30
0.0
  9
$UCSORGLEFT
 10
0.0
 20
0.0
 30
0.0
  9
$UCSORGRIGHT
 10
0.0
 20
0.0
 30
0.0
  9
$UCSORGFRONT
 10
0.0
 20
0.0
 30
0.0
  9
$UCSORGBACK
 10
0.0
 20
0.0
 30
0.0
  9
$PUCSBASE
  2

  9
$PUCSNAME
  2

  9
$PUCSORG
 10
0.0
 20
0.0
 30
0.0
  9
$PUCSXDIR
 10
1.0
 20
0.0
 30
0.0
  9
$PUCSYDIR
 10
0.0
 20
1.0
 30
0.0
  9
$PUCSORTHOREF
  2

  9
$PUCSORTHOVIEW
 70
     0
  9
$PUCSORGTOP
 10
0.0
 20
0.0
 30
0.0
  9
$PUCSORGBOTTOM
 10
0.0
 20
0.0
 30
0.0
  9
$PUCSORGLEFT
 10
0.0
 20
0.0
 30
0.0
  9
$PUCSORGRIGHT
 10
0.0
 20
0.0
 30
0.0
  9
$PUCSORGFRONT
 10
0.0
 20
0.0
 30
0.0
  9
$PUCSORGBACK
 10
0.0
 20
0.0
 30
0.0
  9
$USERI1
 70
     0
  9
$USERI2
 70
     0
  9
$USERI3
 70
     0
  9
$USERI4
 70
     0
  9
$USERI5
 70
     0
  9
$USERR1
 40
0.0
  9
$USERR2
 40
0.0
  9
$USERR3
 40
0.0
  9
$USERR4
 40
0.0
  9
$USERR5
 40
0.0
  9
$WORLDVIEW
 70
     1
  9
$SHADEDGE
 70
     3
  9
$SHADEDIF
 70
    70
  9
$TILEMODE
 70
     1
  9
$MAXACTVP
 70
    64
  9
$PINSBASE
 10
0.0
 20
0.0
 30
0.0
  9
$PLIMCHECK
 70
     0
  9
$PEXTMIN
 10
1.0000000000E+20
 20
1.0000000000E+20
 30
1.0000000000E+20
  9
$PEXTMAX
 10
-1.0000000000E+20
 20
-1.0000000000E+20
 30
-1.0000000000E+20
  9
$PLIMMIN
 10
0.0
 20
0.0
  9
$PLIMMAX
 10
420.0
 20
297.0
  9
$UNITMODE
 70
     0
  9
$VISRETAIN
 70
     1
  9
$PLINEGEN
 70
     0
  9
$PSLTSCALE
 70
     1
  9
$TREEDEPTH
 70
  3020
  9
$CMLSTYLE
  2
Standard
  9
$CMLJUST
 70
     0
  9
$CMLSCALE
 40
20.0
  9
$PROXYGRAPHICS
 70
     1
  9
$MEASUREMENT
 70
     1
  9
$CELWEIGHT
370
    -1
  9
$ENDCAPS
280
     0
  9
$JOINSTYLE
280
     0
  9
$LWDISPLAY
290
     1
  9
$INSUNITS
 70
     4
  9
$HYPERLINKBASE
  1

  9
$STYLESHEET
  1

  9
$XEDIT
290
     1
  9
$CEPSNTYPE
380
     0
  9
$PSTYLEMODE
290
     1
  9
$FINGERPRINTGUID
  2
{134b63dc-fceb-4a6a-91c5-e954eb87a2e3}
  9
$VERSIONGUID
  2
{FAEB1C32-E019-11D5-929B-00C0DF256EC4}
  9
$EXTNAMES
290
     1
  9
$PSVPSCALE
 40
0.0
  9
$OLESTARTUP
290
     0
  0
ENDSEC
  0
SECTION
  2
CLASSES
  0
CLASS
  1
ACDBDICTIONARYWDFLT
  2
AcDbDictionaryWithDefault
  3
ObjectDBX Classes
 90
        0
280
     0
281
     0
  0
CLASS
  1
VISUALSTYLE
  2
AcDbVisualStyle
  3
ObjectDBX Classes
 90
     4095
280
     0
281
     0
  0
CLASS
  1
MATERIAL
  2
AcDbMaterial
  3
ObjectDBX Classes
 90
     1153
280
     0
281
     0
  0
CLASS
  1
SCALE
  2
AcDbScale
  3
ObjectDBX Classes
 90
     1153
280
     0
281
     0
  0
CLASS
  1
TABLESTYLE
  2
AcDbTableStyle
  3
ObjectDBX Classes
 90
     4095
280
     0
281
     0
  0
CLASS
  1
MLEADERSTYLE
  2
AcDbMLeaderStyle
  3
ACDB_MLEADERSTYLE_CLASS
 90
     4095
280
     0
281
     0
  0
CLASS
  1
SUN
  2
AcDbSun
  3
SCENEOE
 90
     1153
280
     0
281
     0
  0
CLASS
  1
ACDBPLACEHOLDER
  2
AcDbPlaceHolder
  3
ObjectDBX Classes
 90
        0
280
     0
281
     0
  0
CLASS
  1
LAYOUT
  2
AcDbLayout
  3
ObjectDBX Classes
 90
        0
280
     0
281
     0
  0
ENDSEC
  0
SECTION
  2
TABLES
  0
TABLE
  2
VPORT
  5
8
330
0
100
AcDbSymbolTable
 70
     1
  0
VPORT
  5
29
330
8
100
AcDbSymbolTableRecord
100
AcDbViewportTableRecord
  2
*Active
 70
     0
 10
0.0
 20
0.0
 11
1.0
 21
1.0
 12
0.0
 22
0.0
 13
0.0
 23
0.0
 14
10.0
 24
10.0
 15
10.0
 25
10.0
 16
0.0
 26
0.0
 36
1.0
 17
0.0
 27
0.0
 37
0.0
 40
102.0
 41
1.0
 42
50.0
 43
0.0
 44
0.0
 50
0.0
 51
0.0
 71
     0
 72
   100
 73
     1
 74
     3
 75
     0
 76
     0
 77
     0
 78
     0
281
     0
 65
     1
110
0.0
120
0.0
130
0.0
111
1.0
121
0.0
131
0.0
112
0.0
122
1.0
132
0.0
 79
     0
146
0.0
  0
ENDTAB
  0
TABLE
  2
LTYPE
  5
5
330
0
100
AcDbSymbolTable
 70
     6
  0
LTYPE
  5
14
330
5
100
AcDbSymbolTableRecord
100
AcDbLinetypeTableRecord
  2
ByBlock
 70
     0
  3

 72
    65
 73
     0
 40
0.0
  0
LTYPE
  5
15
330
5
100
AcDbSymbolTableRecord
100
AcDbLinetypeTableRecord
  2
ByLayer
 70
     0
  3

 72
    65
 73
     0
 40
0.0
  0
LTYPE
  5
16
330
5
100
AcDbSymbolTableRecord
100
AcDbLinetypeTableRecord
  2
Continuous
 70
     0
  3
Solid line
 72
    65
 73
     0
 40
0.0
  0
LTYPE
  5
6E
330
5
100
AcDbSymbolTableRecord
100
AcDbLinetypeTableRecord
  2
HIDDEN
 70
     0
  3
Hidden __ __ __ __ __ __ __ __ __ __ __ __ __ __
 72
    65
 73
     2
 40
1.905
 49
1.27
 74
     0
 49
-0.635
 74
     0
  0
LTYPE
  5
6F
330
5
100
AcDbSymbolTableRecord
100
AcDbLinetypeTableRecord
  2
PHANTOM
 70
     0
  3
Phantom ______  __  __  ______  __  __  ______
 72
    65
 73
     6
 40
12.7
 49
6.35
 74
     0
 49
-1.27
 74
     0
 49
1.27
 74
     0
 49
-1.27
 74
     0
 49
1.27
 74
     0
 49
-1.27
 74
     0
  0
LTYPE
  5
70
330
5
100
AcDbSymbolTableRecord
100
AcDbLinetypeTableRecord
  2
CENTER
 70
     0
  3
Center ____ _ ____ _ ____ _ ____ _ ____ _ ____
 72
    65
 73
     4
 40
10.16
 49
6.35
 74
     0
 49
-1.27
 74
     0
 49
1.27
 74
     0
 49
-1.27
 74
     0
  0
LTYPE
  5
71
330
5
100
AcDbSymbolTableRecord
100
AcDbLinetypeTableRecord
  2
CENTERX2
 70
     0
  3
Center (2x) ________  __  ________  __  _____
 72
    65
 73
     4
 40
20.32
 49
12.7
 74
     0
 49
-2.54
 74
     0
 49
2.54
 74
     0
 49
-2.54
 74
     0
  0
LTYPE
  5
72
330
5
100
AcDbSymbolTableRecord
100
AcDbLinetypeTableRecord
  2
DOT2
 70
     0
  3
Dot (.5x) ........................................
 72
    65
 73
     2
 40
0.635
 49
0.0
 74
     0
 49
-0.635
 74
     0
  0
ENDTAB
  0
TABLE
  2
LAYER
  5
2
330
0
100
AcDbSymbolTable
 70
     1
  0
LAYER
  5
10
330
2
100
AcDbSymbolTableRecord
100
AcDbLayerTableRecord
  2
0
 70
     0
 62
     7
  6
Continuous
370
    -3
390
F
  0
ENDTAB
  0
TABLE
  2
STYLE
  5
3
330
0
100
AcDbSymbolTable
 70
     1
  0
STYLE
  5
11
330
3
100
AcDbSymbolTableRecord
100
AcDbTextStyleTableRecord
  2
Standard
 70
     0
 40
0.0
 41
1.0
 50
0.0
 71
     0
 42
4.0
  3
txt
  4

  0
ENDTAB
  0
TABLE
  2
VIEW
  5
6
330
0
100
AcDbSymbolTable
 70
     0
  0
ENDTAB
  0
TABLE
  2
UCS
  5
7
330
0
100
AcDbSymbolTable
 70
     0
  0
ENDTAB
  0
TABLE
  2
APPID
  5
9
330
0
100
AcDbSymbolTable
 70
     1
  0
APPID
  5
12
330
9
100
AcDbSymbolTableRecord
100
AcDbRegAppTableRecord
  2
ACAD
 70
     0
  0
ENDTAB
  0
TABLE
  2
DIMSTYLE
  5
A
330
0
100
AcDbSymbolTable
 70
     1
100
AcDbDimStyleTable
  0
DIMSTYLE
105
27
330
A
100
AcDbSymbolTableRecord
100
AcDbDimStyleTableRecord
  2
ISO-25
 70
     0
 41
2.5
 42
0.625
 43
3.75
 44
1.25
 73
     0
 74
     0
 77
     1
 78
     8
140
2.5
141
2.5
143
0.0393700787
147
0.625
171
     3
172
     1
178
     0
271
     2
272
     2
274
     3
278
    44
283
     0
284
     8
340
11
  0
ENDTAB
  0
TABLE
  2
BLOCK_RECORD
  5
1
330
0
100
AcDbSymbolTable
 70
     1
  0
BLOCK_RECORD
  5
1F
330
1
100
AcDbSymbolTableRecord
100
AcDbBlockTableRecord
  2
*Model_Space
340
22
  0
BLOCK_RECORD
  5
1B
330
1
100
AcDbSymbolTableRecord
100
AcDbBlockTableRecord
  2
*Paper_Space
340
1E
  0
BLOCK_RECORD
  5
23
330
1
100
AcDbSymbolTableRecord
100
AcDbBlockTableRecord
  2
*Paper_Space0
340
26
  0
ENDTAB
  0
ENDSEC
  0
SECTION
  2
BLOCKS
  0
BLOCK
  5
20
330
1F
100
AcDbEntity
  8
0
100
AcDbBlockBegin
  2
*Model_Space
 70
     0
 10
0.0
 20
0.0
 30
0.0
  3
*Model_Space
  1

  0
ENDBLK
  5
21
330
1F
100
AcDbEntity
  8
0
100
AcDbBlockEnd
  0
BLOCK
  5
1C
330
1B
100
AcDbEntity
 67
     1
  8
0
100
AcDbBlockBegin
  2
*Paper_Space
 70
     0
 10
0.0
 20
0.0
 30
0.0
  3
*Paper_Space
  1

  0
ENDBLK
  5
1D
330
1B
100
AcDbEntity
 67
     1
  8
0
100
AcDbBlockEnd
  0
BLOCK
  5
24
330
23
100
AcDbEntity
  8
0
100
AcDbBlockBegin
  2
*Paper_Space0
 70
     0
 10
0.0
 20
0.0
 30
0.0
  3
*Paper_Space0
  1

  0
ENDBLK
  5
25
330
23
100
AcDbEntity
  8
0
100
AcDbBlockEnd
  0
ENDSEC
  0
SECTION
  2
ENTITIES
  0
SPLINE
  5
74
330
1F
100
AcDbEntity
  8
0
  6
Continuous
 62
     7
370
    25
100
AcDbSpline
210
0.0
220
0.0
230
1.0
 70
     8
 71
     3
 72
    15
 73
    11
 74
     0
 42
0.000000001
 43
0.00000001
 40
0.0
 40
0.0
 40
0.0
 40
0.0
 40
0.0632978206059881
 40
0.1446367240976141
 40
0.2432066950657518
 40
0.3592478124879865
 40
0.4927245325651667
 40
0.6437404275531744
 40
0.813091626420816
 40
1.0
 40
1.0
 40
1.0
 40
1.0
 10
-27.16010551948052
 20
-19.81432629870132
 30
0.0
 10
-27.2391238367593
 20
-19.82925736143086
 30
0.0
 10
-27.41968219478002
 20
-19.86337512377753
 30
0.0
 10
-27.7264858567513
 20
-19.90160847631892
 30
0.0
 10
-28.10145307517492
 20
-19.92889985394154
 30
0.0
 10
-28.54267330299149
 20
-19.95837980574174
 30
0.0
 10
-29.05130173443205
 20
-19.97329662720467
 30
0.0
 10
-29.62754558208552
 20
-19.98992412144059
 30
0.0
 10
-30.27189246764999
 20
-19.99833542531761
 30
0.0
 10
-30.72443059810715
 20
-19.99942720672519
 30
0.0
 10
-30.96185064935066
 20
-20.00000000000002
 30
0.0
  0
SPLINE
  5
75
330
1F
100
AcDbEntity
  8
0
  6
Continuous
 62
     7
370
    25
100
AcDbSpline
210
0.0
220
0.0
230
1.0
 70
     8
 71
     3
 72
    23
 73
    19
 74
     0
 42
0.000000001
 43
0.00000001
 40
0.0
 40
0.0
 40
0.0
 40
0.0
 40
0.0738707618095095
 40
0.1448230875865909
 40
0.2136752449545023
 40
0.2809030283827607
 40
0.3464360958234203
 40
0.4112844949741067
 40
0.4756700461667495
 40
0.5406307208004064
 40
0.604485912019283
 40
0.6649109476779064
 40
0.7238092093558381
 40
0.7808959092208955
 40
0.8363859142538874
 40
0.8913398245262303
 40
0.9455790964021334
 40
1.0
 40
1.0
 40
1.0
 40
1.0
 10
-24.25324675324676
 20
-15.59557629870132
 30
0.0
 10
-24.25488797425928
 20
-15.73167327184934
 30
0.0
 10
-24.25810557603599
 20
-15.99849039109487
 30
0.0
 10
-24.30397586020468
 20
-16.38979056215788
 30
0.0
 10
-24.36916984889049
 20
-16.76561097699354
 30
0.0
 10
-24.46343799820817
 20
-17.12517949732529
 30
0.0
 10
-24.58560275622289
 20
-17.46844431441488
 30
0.0
 10
-24.73608400532008
 20
-17.79434759622487
 30
0.0
 10
-24.90890889339391
 20
-18.10795617908235
 30
0.0
 10
-25.11316737172017
 20
-18.39986148899518
 30
0.0
 10
-25.33264092826819
 20
-18.67083879652618
 30
0.0
 10
-25.56337082721015
 20
-18.91716230419716
 30
0.0
 10
-25.80222441767186
 20
-19.13813036544596
 30
0.0
 10
-26.05714127510839
 20
-19.32512490938459
 30
0.0
 10
-26.31642353673188
 20
-19.49279071781577
 30
0.0
 10
-26.58757180021874
 20
-19.62989811028065
 30
0.0
 10
-26.86974194033177
 20
-19.73722040343698
 30
0.0
 10
-27.06320986218453
 20
-19.78859570802277
 30
0.0
 10
-27.16010551948052
 20
-19.81432629870132
 30
0.0
  0
SPLINE
  5
76
330
1F
100
AcDbEntity
  8
0
  6
Continuous
 62
     7
370
    25
100
AcDbSpline
210
0.0
220
0.0
230
1.0
 70
     8
 71
     3
 72
    23
 73
    19
 74
     0
 42
0.000000001
 43
0.00000001
 40
0.0
 40
0.0
 40
0.0
 40
0.0
 40
0.0624931198140714
 40
0.1235661026164119
 40
0.1836121106404122
 40
0.242673575884258
 40
0.3015041301816748
 40
0.3600778435782223
 40
0.4197425143995386
 40
0.4799313358821601
 40
0.5411960280706359
 40
0.602552937548329
 40
0.6646831129647496
 40
0.7279223661734209
 40
0.7930667240111273
 40
0.8598836341509154
 40
0.928786566467611
 40
1.0
 40
1.0
 40
1.0
 40
1.0
 10
-26.65178571428573
 20
-11.92471590909093
 30
0.0
 10
-26.55985711954497
 20
-11.95873772830842
 30
0.0
 10
-26.37808897922946
 20
-12.02600823131951
 30
0.0
 10
-26.11868709938414
 20
-12.15192869942554
 30
0.0
 10
-25.8751274150108
 20
-12.29547116507582
 30
0.0
 10
-25.64525136260052
 20
-12.45398945737486
 30
0.0
 10
-25.43140230994495
 20
-12.63022837709053
 30
0.0
 10
-25.23581590067536
 20
-12.82775416025001
 30
0.0
 10
-25.05365377029759
 20
-13.04030233544246
 30
0.0
 10
-24.88477739860647
 20
-13.26900795419618
 30
0.0
 10
-24.73655201306113
 20
-13.51480410026456
 30
0.0
 10
-24.60868035828306
 20
-13.77503763419458
 30
0.0
 10
-24.49906184739902
 20
-14.04673032600548
 30
0.0
 10
-24.40657412653897
 20
-14.33104730070895
 30
0.0
 10
-24.33704580978889
 20
-14.62949196726869
 30
0.0
 10
-24.28971116932802
 20
-14.94098807331443
 30
0.0
 10
-24.2573890742725
 20
-15.26413329808011
 30
0.0
 10
-24.25464262313307
 20
-15.48388739271837
 30
0.0
 10
-24.25324675324676
 20
-15.59557629870132
 30
0.0
  0
SPLINE
  5
77
330
1F
100
AcDbEntity
  8
0
  6
Continuous
 62
     7
370
    25
100
AcDbSpline
210
0.0
220
0.0
230
1.0
 70
     8
 71
     3
 72
    15
 73
    11
 74
     0
 42
0.000000001
 43
0.00000001
 40
0.0
 40
0.0
 40
0.0
 40
0.0
 40
0.1347725642357461
 40
0.265468925436291
 40
0.3931075824657264
 40
0.5215391839664509
 40
0.6467985425831937
 40
0.7671557117644965
 40
0.8838171351065266
 40
1.0
 40
1.0
 40
1.0
 40
1.0
 10
-24.83766233766234
 20
-8.719561688311707
 30
0.0
 10
-24.84264751673165
 20
-8.893599431064219
 30
0.0
 10
-24.85246709787669
 20
-9.236411136219957
 30
0.0
 10
-24.95596309133822
 20
-9.734751593548234
 30
0.0
 10
-25.10888423787386
 20
-10.21086009422455
 30
0.0
 10
-25.33258655687718
 20
-10.65071062224745
 30
0.0
 10
-25.60086419945932
 20
-11.053288016139
 30
0.0
 10
-25.91434491104402
 20
-11.40107289865228
 30
0.0
 10
-26.25908013698457
 20
-11.70265139095022
 30
0.0
 10
-26.52106333746929
 20
-11.85079589548316
 30
0.0
 10
-26.65178571428572
 20
-11.92471590909093
 30
0.0
  0
SPLINE
  5
78
330
1F
100
AcDbEntity
  8
0
  6
Continuous
 62
     7
370
    25
100
AcDbSpline
210
0.0
220
0.0
230
1.0
 70
     8
 71
     3
 72
    23
 73
    19
 74
     0
 42
0.000000001
 43
0.00000001
 40
0.0
 40
0.0
 40
0.0
 40
0.0
 40
0.072523866374007
 40
0.1393062648483996
 40
0.2008384603433673
 40
0.2571314403173291
 40
0.3078308823652668
 40
0.3531647361140808
 40
0.3935384291914455
 40
0.428851553432501
 40
0.4946362930518086
 40
0.5610720456909732
 40
0.6295464861826627
 40
0.7020762047952412
 40
0.7760796995523561
 40
0.8493859187011404
 40
0.923173445021738
 40
0.9999999999999999
 40
0.9999999999999999
 40
0.9999999999999999
 40
0.9999999999999999
 10
-30.11566558441559
 20
-5.000000000000019
 30
0.0
 10
-29.9370911992842
 20
-5.001473183032997
 30
0.0
 10
-29.59407955588993
 20
-5.004302922207462
 30
0.0
 10
-29.09960532776292
 20
-5.017255787953305
 30
0.0
 10
-28.64600366554273
 20
-5.04887968905122
 30
0.0
 10
-28.23291337573868
 20
-5.08806923810856
 30
0.0
 10
-27.86033289953209
 20
-5.133494877274686
 30
0.0
 10
-27.53077901164
 20
-5.199253281336462
 30
0.0
 10
-27.24083120789161
 20
-5.269163248569987
 30
0.0
 10
-26.91112726776921
 20
-5.383088136367199
 30
0.0
 10
-26.53998497662355
 20
-5.567794282852785
 30
0.0
 10
-26.13749396729788
 20
-5.858051576844769
 30
0.0
 10
-25.77201753693778
 20
-6.217316874102619
 30
0.0
 10
-25.44606901176136
 20
-6.636494943992341
 30
0.0
 10
-25.175873122418
 20
-7.107978869334911
 30
0.0
 10
-24.97958181035051
 20
-7.617774193023799
 30
0.0
 10
-24.85978144524605
 20
-8.159050619069006
 30
0.0
 10
-24.84513389095495
 20
-8.530228176139193
 30
0.0
 10
-24.83766233766234
 20
-8.719561688311707
 30
0.0
  0
CIRCLE
  5
91
330
1F
100
AcDbEntity
  8
0
  6
Continuous
 62
     7
370
    25
100
AcDbCircle
 10
0.0
 20
0.0
 30
0.0
 40
45.00000000000005
  0
SPLINE
  5
F4
330
1F
100
AcDbEntity
  8
0
  6
Continuous
 62
     7
370
    25
100
AcDbSpline
210
0.0
220
0.0
230
1.0
 70
     8
 71
     3
 72
    23
 73
    19
 74
     0
 42
0.000000001
 43
0.00000001
 40
0.0
 40
0.0
 40
0.0
 40
0.0
 40
0.0981792511449638
 40
0.1870698372510572
 40
0.2663713120906531
 40
0.3364110088019759
 40
0.3974027237311051
 40
0.4491784926250565
 40
0.4914383616606964
 40
0.5246212148570882
 40
0.5797822182754684
 40
0.631674386403346
 40
0.6798744825304979
 40
0.726024263481159
 40
0.7765504631887913
 40
0.8388391081972223
 40
0.9133956529829319
 40
1.0
 40
1.0
 40
1.0
 40
1.0
 10
-15.32568993506493
 20
-16.72483766233767
 30
0.0
 10
-15.40541364947877
 20
-16.58355817144115
 30
0.0
 10
-15.55731847770389
 20
-16.31436553592286
 30
0.0
 10
-15.78029440808717
 20
-15.93491460961691
 30
0.0
 10
-15.97987201085899
 20
-15.59560728629599
 30
0.0
 10
-16.16413970394663
 20
-15.30095554230008
 30
0.0
 10
-16.32335804537042
 20
-15.04422428564992
 30
0.0
 10
-16.46690255153272
 20
-14.83207995817032
 30
0.0
 10
-16.58712791650159
 20
-14.6595130258209
 30
0.0
 10
-16.72327166525093
 20
-14.49197830123483
 30
0.0
 10
-16.8822873427551
 20
-14.32258122888022
 30
0.0
 10
-17.08141080412567
 20
-14.16029209315131
 30
0.0
 10
-17.27942463431689
 20
-14.02076917165664
 30
0.0
 10
-17.49745478934716
 20
-13.9187120867349
 30
0.0
 10
-17.75132951495597
 20
-13.84830587855049
 30
0.0
 10
-18.05732877670363
 20
-13.79871334814109
 30
0.0
 10
-18.42579151185764
 20
-13.76986091147142
 30
0.0
 10
-18.69211229467608
 20
-13.76750160568671
 30
0.0
 10
-18.83522727272727
 20
-13.76623376623377
 30
0.0
  0
SPLINE
  5
F8
330
1F
100
AcDbEntity
  8
0
  6
Continuous
 62
     7
370
    25
100
AcDbSpline
210
0.0
220
0.0
230
1.0
 70
     8
 71
     3
 72
    19
 73
    15
 74
     0
 42
0.000000001
 43
0.00000001
 40
0.0
 40
0.0
 40
0.0
 40
0.0
 40
0.1064178879073585
 40
0.2077019471341172
 40
0.3048295665696596
 40
0.3987820863124206
 40
0.4487263679812472
 40
0.5054184699430591
 40
0.5693303067498233
 40
0.6407138860958314
 40
0.7194243225900554
 40
0.8054864659937805
 40
0.8989193003864302
 40
1.0
 40
1.0
 40
1.0
 40
1.0
 10
-14.69866071428571
 20
-13.38879870129871
 30
0.0
 10
-14.55821972142117
 20
-13.48319507534564
 30
0.0
 10
-14.28411291241544
 20
-13.66743393854331
 30
0.0
 10
-13.9059669630338
 20
-13.97123208485891
 30
0.0
 10
-13.56256670944171
 20
-14.28481578454786
 30
0.0
 10
-13.30131163888375
 20
-14.56576707876444
 30
0.0
 10
-13.10127911718691
 20
-14.81424968035513
 30
0.0
 10
-12.94412797068378
 20
-15.03523996617445
 30
0.0
 10
-12.77241627669845
 20
-15.28757647898662
 30
0.0
 10
-12.59482080932417
 20
-15.57779644525039
 30
0.0
 10
-12.40273866069239
 20
-15.90029186956575
 30
0.0
 10
-12.19946163241484
 20
-16.25685035888802
 30
0.0
 10
-11.98196371234038
 20
-16.64623172670419
 30
0.0
 10
-11.83880248248655
 20
-16.92028742471939
 30
0.0
 10
-11.76440746753246
 20
-17.06270292207793
 30
0.0
  0
SPLINE
  5
F9
330
1F
100
AcDbEntity
  8
0
  6
Continuous
 62
     7
370
    25
100
AcDbSpline
210
0.0
220
0.0
230
1.0
 70
     8
 71
     3
 72
    23
 73
    19
 74
     0
 42
0.000000001
 43
0.00000001
 40
0.0
 40
0.0
 40
0.0
 40
0.0
 40
0.0713056699348453
 40
0.1393973901699649
 40
0.2046268066591101
 40
0.2675258086422161
 40
0.328452795614646
 40
0.3874479384534118
 40
0.4462175108023753
 40
0.5046427229671165
 40
0.5629212946108654
 40
0.6212611936921343
 40
0.6803061059488623
 40
0.7398592928019142
 40
0.8013517153632327
 40
0.8648247432723589
 40
0.9309158186154722
 40
0.9999999999999999
 40
0.9999999999999999
 40
0.9999999999999999
 40
0.9999999999999999
 10
-11.2012987012987
 20
-9.20048701298702
 30
0.0
 10
-11.20427944368192
 20
-9.343663684445715
 30
0.0
 10
-11.21010657789676
 20
-9.623563646858264
 30
0.0
 10
-11.25387452402542
 20
-10.03247708386002
 30
0.0
 10
-11.32205127743352
 20
-10.42088786358006
 30
0.0
 10
-11.42348340668681
 20
-10.78718189618469
 30
0.0
 10
-11.55043614051584
 20
-11.13203703534534
 30
0.0
 10
-11.7071335690064
 20
-11.45547180413052
 30
0.0
 10
-11.89341828684671
 20
-11.75674379809975
 30
0.0
 10
-12.10605822827753
 20
-12.03850395834753
 30
0.0
 10
-12.34910734167375
 20
-12.29296937397956
 30
0.0
 10
-12.61017490496819
 20
-12.53081652093325
 30
0.0
 10
-12.90065400064209
 20
-12.73675732764355
 30
0.0
 10
-13.21456983939171
 20
-12.91674901013043
 30
0.0
 10
-13.54931320356306
 20
-13.07664561096406
 30
0.0
 10
-13.91089691415232
 20
-13.20601002518373
 30
0.0
 10
-14.29529689107566
 20
-13.3139635693499
 30
0.0
 10
-14.56223588229681
 20
-13.36348812629043
 30
0.0
 10
-14.69866071428571
 20
-13.38879870129871
 30
0.0
  0
SPLINE
  5
FA
330
1F
100
AcDbEntity
  8
0
  6
Continuous
 62
     7
370
    25
100
AcDbSpline
210
0.0
220
0.0
230
1.0
 70
     8
 71
     3
 72
    27
 73
    23
 74
     0
 42
0.000000001
 43
0.00000001
 40
0.0
 40
0.0
 40
0.0
 40
0.0
 40
0.0674875547280512
 40
0.1303065547878466
 40
0.1881422220921684
 40
0.2410023401910557
 40
0.2890575489479967
 40
0.3323808134831109
 40
0.3715070685123446
 40
0.4062687452054611
 40
0.4713988618184828
 40
0.5373988349550255
 40
0.6056822957606366
 40
0.6781638786874281
 40
0.7157387853691362
 40
0.7536643715965374
 40
0.7921459984175114
 40
0.8317570981282448
 40
0.8718471792952206
 40
0.9131309090242627
 40
0.95604182515933
 40
0.9999999999999999
 40
0.9999999999999999
 40
0.9999999999999999
 40
0.9999999999999999
 10
-16.43973214285714
 20
-5.000000000000008
 30
0.0
 10
-16.26521169802617
 20
-5.00121059857326
 30
0.0
 10
-15.92824352667067
 20
-5.003548050714577
 30
0.0
 10
-15.44183478313736
 20
-5.020142309443784
 30
0.0
 10
-14.99445730465385
 20
-5.055440547179736
 30
0.0
 10
-14.58571458871847
 20
-5.094985672065229
 30
0.0
 10
-14.21704872811081
 20
-5.153127539331167
 30
0.0
 10
-13.88661487729672
 20
-5.222486816903791
 30
0.0
 10
-13.59415521432831
 20
-5.303162261721966
 30
0.0
 10
-13.25636634626725
 20
-5.427728849227909
 30
0.0
 10
-12.87829731138175
 20
-5.635511824614546
 30
0.0
 10
-12.46884107716496
 20
-5.952288328653168
 30
0.0
 10
-12.10307016571715
 20
-6.345412903966722
 30
0.0
 10
-11.84163457002784
 20
-6.727255240258064
 30
0.0
 10
-11.65715920999961
 20
-7.062829247165451
 30
0.0
 10
-11.53530970545592
 20
-7.331564082332644
 30
0.0
 10
-11.4313740205715
 20
-7.613244523827705
 30
0.0
 10
-11.34599049670413
 20
-7.907066120911259
 30
0.0
 10
-11.2838401060392
 20
-8.213898188032918
 30
0.0
 10
-11.23303712638473
 20
-8.53143308150829
 30
0.0
 10
-11.20675097382079
 20
-8.862171289393155
 30
0.0
 10
-11.20313067376491
 20
-9.086812377686178
 30
0.0
 10
-11.2012987012987
 20
-9.20048701298702
 30
0.0
  0
CIRCLE
  5
FE
330
1F
100
AcDbEntity
  8
0
  6
Continuous
 62
     7
370
    25
100
AcDbCircle
 10
0.0
 20
0.0
 30
0.0
 40
49.99999999999996
  0
CIRCLE
  5
FF
330
1F
100
AcDbEntity
  8
0
  6
Continuous
 62
     7
370
    25
100
AcDbCircle
 10
0.0
 20
0.0
 30
0.0
 40
46.99999999999999
  0
SPLINE
  5
101
330
1F
100
AcDbEntity
  8
0
  6
Continuous
 62
     7
370
    25
100
AcDbSpline
210
0.0
220
0.0
230
1.0
 70
     8
 71
     3
 72
    15
 73
    11
 74
     0
 42
0.000000001
 43
0.00000001
 40
0.0
 40
0.0
 40
0.0
 40
0.0
 40
0.1399219089783587
 40
0.2672699497876659
 40
0.3894627648750735
 40
0.5066698290606084
 40
0.6217297903513185
 40
0.7388537720086561
 40
0.86380972509025
 40
1.0
 40
1.0
 40
1.0
 40
1.0
 10
-28.90117694805196
 20
-10.79545454545456
 30
0.0
 10
-28.78674415267832
 20
-10.77544296999401
 30
0.0
 10
-28.56816188992272
 20
-10.73721812866953
 30
0.0
 10
-28.26234951327864
 20
-10.62849149222638
 30
0.0
 10
-27.99508853159962
 20
-10.48017079089095
 30
0.0
 10
-27.76919880778039
 20
-10.28913780054825
 30
0.0
 10
-27.5886522185651
 20
-10.05987773827019
 30
0.0
 10
-27.45858456311963
 20
-9.791531180447622
 30
0.0
 10
-27.38182936931759
 20
-9.484733017926095
 30
0.0
 10
-27.37413996736245
 20
-9.267906608048945
 30
0.0
 10
-27.37012987012988
 20
-9.154829545454563
 30
0.0
  0
SPLINE
  5
102
330
1F
100
AcDbEntity
  8
0
  6
Continuous
 62
     7
370
    25
100
AcDbSpline
210
0.0
220
0.0
230
1.0
 70
     8
 71
     3
 72
    23
 73
    19
 74
     0
 42
0.000000001
 43
0.00000001
 40
0.0
 40
0.0
 40
0.0
 40
0.0
 40
0.0640318374953685
 40
0.1222987898095091
 40
0.1778227604987041
 40
0.2316793438950468
 40
0.284080645396214
 40
0.3339076560807946
 40
0.3833276739290067
 40
0.4326402478451116
 40
0.4636248201143079
 40
0.5060191229739833
 40
0.559131926900912
 40
0.6243632031227109
 40
0.7010377931175736
 40
0.7892068561086005
 40
0.8888547359149698
 40
1.0
 40
1.0
 40
1.0
 40
1.0
 10
-27.37012987012988
 20
-9.154829545454563
 30
0.0
 10
-27.37402938905678
 20
-9.053033751377484
 30
0.0
 10
-27.38147734720156
 20
-8.858606995715103
 30
0.0
 10
-27.4432705665003
 20
-8.581236779958198
 30
0.0
 10
-27.54698325789445
 20
-8.334275638329382
 30
0.0
 10
-27.69177470313838
 20
-8.120175205470161
 30
0.0
 10
-27.86455463405439
 20
-7.940611504399191
 30
0.0
 10
-28.06041380782277
 20
-7.798528979047439
 30
0.0
 10
-28.27119202301298
 20
-7.690345194985104
 30
0.0
 10
-28.46993629965494
 20
-7.630321759432333
 30
0.0
 10
-28.66348257806201
 20
-7.606078362629852
 30
0.0
 10
-28.8631344347579
 20
-7.583311845740177
 30
0.0
 10
-29.11830472916299
 20
-7.571596975169252
 30
0.0
 10
-29.42756059189207
 20
-7.553760587932929
 30
0.0
 10
-29.79304228667922
 20
-7.548148022638709
 30
0.0
 10
-30.21299982206563
 20
-7.536195020366676
 30
0.0
 10
-30.68791603050225
 20
-7.535984808724683
 30
0.0
 10
-31.02273100969771
 20
-7.533681828707989
 30
0.0
 10
-31.19926948051949
 20
-7.532467532467551
 30
0.0
  0
SPLINE
  5
104
330
1F
100
AcDbEntity
  8
0
  6
Continuous
 62
     7
370
    25
100
AcDbSpline
210
0.0
220
0.0
230
1.0
 70
     8
 71
     3
 72
    15
 73
    11
 74
     0
 42
0.000000001
 43
0.00000001
 40
0.0
 40
0.0
 40
0.0
 40
0.0
 40
0.1928124876642101
 40
0.3650253504631022
 40
0.5195767194602504
 40
0.653547509558937
 40
0.7698609986611203
 40
0.8656331601410769
 40
0.9422966807018953
 40
1.0
 40
1.0
 40
1.0
 40
1.0
 10
-30.96793831168832
 20
-10.84415584415586
 30
0.0
 10
-30.83502231821497
 20
-10.84450742702982
 30
0.0
 10
-30.5833907580006
 20
-10.84517303050466
 30
0.0
 10
-30.2252497520989
 20
-10.8407395939371
 30
0.0
 10
-29.90762931998005
 20
-10.83946380351489
 30
0.0
 10
-29.62866388882125
 20
-10.83179683249983
 30
0.0
 10
-29.39010924261053
 20
-10.82774319388828
 30
0.0
 10
-29.1913562769599
 20
-10.81707428921657
 30
0.0
 10
-29.03278273480497
 20
-10.81027176848342
 30
0.0
 10
-28.94071505625063
 20
-10.79990605918943
 30
0.0
 10
-28.90117694805196
 20
-10.79545454545456
 30
0.0
  0
SPLINE
  5
106
330
1F
100
AcDbEntity
  8
0
  6
Continuous
 62
     7
370
    25
100
AcDbSpline
210
0.0
220
0.0
230
1.0
 70
     8
 71
     3
 72
    15
 73
    11
 74
     0
 42
0.000000001
 43
0.00000001
 40
0.0
 40
0.0
 40
0.0
 40
0.0
 40
0.0538615189846949
 40
0.1282054873439046
 40
0.2228882420114319
 40
0.3382183274904211
 40
0.4728721249521589
 40
0.6282723669320703
 40
0.8044274217940598
 40
1.0
 40
1.0
 40
1.0
 40
1.0
 10
-15.08522727272727
 20
-7.642045454545462
 30
0.0
 10
-15.12370583871346
 20
-7.633540921260672
 30
0.0
 10
-15.21529559328306
 20
-7.613297752204884
 30
0.0
 10
-15.3767909098303
 20
-7.589559600397041
 30
0.0
 10
-15.58422917259641
 20
-7.573348968900866
 30
0.0
 10
-15.83590149271888
 20
-7.558182505635314
 30
0.0
 10
-16.132236111454
 20
-7.546661888249143
 30
0.0
 10
-16.47314934128978
 20
-7.53665845614239
 30
0.0
 10
-16.85877305965769
 20
-7.535851939964781
 30
0.0
 10
-17.13068443123129
 20
-7.533634282076973
 30
0.0
 10
-17.27374188311688
 20
-7.53246753246754
 30
0.0
  0
SPLINE
  5
109
330
1F
100
AcDbEntity
  8
0
  6
Continuous
 62
     7
370
    25
100
AcDbSpline
210
0.0
220
0.0
230
1.0
 70
     8
 71
     3
 72
    23
 73
    19
 74
     0
 42
0.000000001
 43
0.00000001
 40
0.0
 40
0.0
 40
0.0
 40
0.0
 40
0.0956814161576677
 40
0.1820686111803773
 40
0.2591892587876233
 40
0.32770698759276
 40
0.387024617690145
 40
0.4371401788470452
 40
0.4788677478399206
 40
0.5115875374305173
 40
0.5671148616669357
 40
0.6210163275370357
 40
0.6761486900406116
 40
0.7332324055957277
 40
0.7924904648720618
 40
0.8557378676227234
 40
0.9241491998716337
 40
1.0
 40
1.0
 40
1.0
 40
1.0
 10
-17.3833198051948
 20
-11.23376623376624
 30
0.0
 10
-17.2372171622459
 20
-11.23289891209606
 30
0.0
 10
-16.9592038723124
 20
-11.23124851792051
 30
0.0
 10
-16.56341029579789
 20
-11.22662139617892
 30
0.0
 10
-16.20935208760435
 20
-11.21322072758763
 30
0.0
 10
-15.8966062656023
 20
-11.20005626201604
 30
0.0
 10
-15.62576261617998
 20
-11.17784459089402
 30
0.0
 10
-15.39594367422158
 20
-11.1553918195019
 30
0.0
 10
-15.20807454766483
 20
-11.12521475668579
 30
0.0
 10
-15.0138016933781
 20
-11.08323437974867
 30
0.0
 10
-14.81081449208031
 20
-11.00288969026614
 30
0.0
 10
-14.59211530204047
 20
-10.87703436212096
 30
0.0
 10
-14.3991714801628
 20
-10.70993183840034
 30
0.0
 10
-14.23175345064505
 20
-10.50761577556844
 30
0.0
 10
-14.08953557921289
 20
-10.27077854211065
 30
0.0
 10
-14.000789433006
 20
-9.991535036073635
 30
0.0
 10
-13.93520873743807
 20
-9.680391725399193
 30
0.0
 10
-13.93085864169654
 20
-9.459623565292683
 30
0.0
 10
-13.92857142857142
 20
-9.343547077922086
 30
0.0
  0
SPLINE
  5
10A
330
1F
100
AcDbEntity
  8
0
  6
Continuous
 62
     7
370
    25
100
AcDbSpline
210
0.0
220
0.0
230
1.0
 70
     8
 71
     3
 72
    15
 73
    11
 74
     0
 42
0.000000001
 43
0.00000001
 40
0.0
 40
0.0
 40
0.0
 40
0.0
 40
0.1493111664336511
 40
0.2847743212820881
 40
0.4110975839700359
 40
0.5307274278949065
 40
0.6470430445017724
 40
0.7617553479414714
 40
0.8788164566456852
 40
1.0
 40
1.0
 40
1.0
 40
1.0
 10
-13.92857142857142
 20
-9.343547077922086
 30
0.0
 10
-13.9308942552166
 20
-9.2325340507606
 30
0.0
 10
-13.93532447565581
 20
-9.020804009274185
 30
0.0
 10
-14.00102997358198
 20
-8.721776819074572
 30
0.0
 10
-14.09039650558051
 20
-8.451898960391182
 30
0.0
 10
-14.23169940379172
 20
-8.220928070001925
 30
0.0
 10
-14.40345006747203
 20
-8.023965970433151
 30
0.0
 10
-14.60521627343213
 20
-7.861415774280498
 30
0.0
 10
-14.83150668629966
 20
-7.726285832884981
 30
0.0
 10
-14.99968373419124
 20
-7.670447643552824
 30
0.0
 10
-15.08522727272727
 20
-7.642045454545462
 30
0.0
  0
SPLINE
  5
10C
330
1F
100
AcDbEntity
  8
0
  6
Continuous
 62
     7
370
    25
100
AcDbSpline
210
0.0
220
0.0
230
1.0
 70
     8
 71
     3
 72
    23
 73
    19
 74
     0
 42
0.000000001
 43
0.00000001
 40
0.0
 40
0.0
 40
0.0
 40
0.0
 40
0.0745904167431767
 40
0.1435211700017253
 40
0.2085920278287741
 40
0.2708196217642899
 40
0.3312553696504255
 40
0.3903216780324122
 40
0.4495192936717766
 40
0.510099813809502
 40
0.5446906007432158
 40
0.5870202296324928
 40
0.6367262618512929
 40
0.694369898845208
 40
0.7588845984248669
 40
0.8314949595739322
 40
0.9116559472632413
 40
1.0
 40
1.0
 40
1.0
 40
1.0
 10
-26.98051948051949
 20
-15.46469155844158
 30
0.0
 10
-26.98380307079305
 20
-15.34455422223774
 30
0.0
 10
-26.99012110383865
 20
-15.11339515642593
 30
0.0
 10
-27.06094646765904
 20
-14.78410304330669
 30
0.0
 10
-27.16373140188488
 20
-14.48439889400803
 30
0.0
 10
-27.31909430631177
 20
-14.22318955614499
 30
0.0
 10
-27.5094341654826
 20
-14.00001558310522
 30
0.0
 10
-27.72796969848651
 20
-13.81165982727458
 30
0.0
 10
-27.97418553983177
 20
-13.66062144944871
 30
0.0
 10
-28.20554528106819
 20
-13.56740796317716
 30
0.0
 10
-28.41966832259728
 20
-13.51126118179114
 30
0.0
 10
-28.62059573840931
 20
-13.47761325289932
 30
0.0
 10
-28.85870320253855
 20
-13.44199342080135
 30
0.0
 10
-29.13443066267387
 20
-13.42162288832156
 30
0.0
 10
-29.44668533002237
 20
-13.39741733471148
 30
0.0
 10
-29.79605006650721
 20
-13.38867204044914
 30
0.0
 10
-30.18357696761858
 20
-13.37772938136895
 30
0.0
 10
-30.45453346603303
 20
-13.37700379043123
 30
0.0
 10
-30.59659090909092
 20
-13.37662337662339
 30
0.0
  0
SPLINE
  5
10D
330
1F
100
AcDbEntity
  8
0
  6
Continuous
 62
     7
370
    25
100
AcDbSpline
210
0.0
220
0.0
230
1.0
 70
     8
 71
     3
 72
    23
 73
    19
 74
     0
 42
0.000000001
 43
0.00000001
 40
0.0
 40
0.0
 40
0.0
 40
0.0
 40
0.0896874434218007
 40
0.171230466352817
 40
0.2439803462351518
 40
0.308654881439668
 40
0.3653089841743044
 40
0.4132606304463958
 40
0.4533700744902587
 40
0.4850128832919122
 40
0.5406847674124212
 40
0.5970283896000742
 40
0.6552100476537562
 40
0.717603109890432
 40
0.782077480252574
 40
0.8497652973908335
 40
0.9217208398125039
 40
1.0
 40
1.0
 40
1.0
 40
1.0
 10
-30.26785714285715
 20
-17.46753246753249
 30
0.0
 10
-30.1339283404399
 20
-17.46669313653508
 30
0.0
 10
-29.87823266642982
 20
-17.46509069328744
 30
0.0
 10
-29.51390437753164
 20
-17.4600764086324
 30
0.0
 10
-29.1871193490894
 20
-17.44798148081251
 30
0.0
 10
-28.89775032430697
 20
-17.43066084691057
 30
0.0
 10
-28.64616955957541
 20
-17.40581929041165
 30
0.0
 10
-28.43149144322081
 20
-17.380195414916
 30
0.0
 10
-28.25572135112496
 20
-17.34712963655878
 30
0.0
 10
-28.07100344115574
 20
-17.30024939475397
 30
0.0
 10
-27.8740304792968
 20
-17.21131139421588
 30
0.0
 10
-27.66218737042077
 20
-17.06925599871583
 30
0.0
 10
-27.46719003553176
 20
-16.88940193121043
 30
0.0
 10
-27.29508132983464
 20
-16.67176192507755
 30
0.0
 10
-27.15311546470793
 20
-16.41655830594402
 30
0.0
 10
-27.05407030120565
 20
-16.12698855115307
 30
0.0
 10
-26.99191008684119
 20
-15.80619567248287
 30
0.0
 10
-26.98442141927268
 20
-15.58167638781061
 30
0.0
 10
-26.98051948051949
 20
-15.46469155844158
 30
0.0
  0
LINE
  5
111
330
1F
100
AcDbEntity
  8
0
  6
Continuous
 62
     7
370
    25
100
AcDbLine
 10
-30.9618506494
 20
-20.0
 30
0.0
 11
-35.5519480519
 21
-20.0
 31
0.0
  0
LINE
  5
112
330
1F
100
AcDbEntity
  8
0
  6
Continuous
 62
     7
370
    25
100
AcDbLine
 10
-35.5519480519
 20
-5.0
 30
0.0
 11
-30.1156655844
 21
-5.0
 31
0.0
  0
LINE
  5
113
330
1F
100
AcDbEntity
  8
0
  6
Continuous
 62
     7
370
    25
100
AcDbLine
 10
-35.5519480519
 20
-20.0
 30
0.0
 11
-35.5519480519
 21
-5.0
 31
0.0
  0
LINE
  5
114
330
1F
100
AcDbEntity
  8
0
  6
Continuous
 62
     7
370
    25
100
AcDbLine
 10
1.461038961
 20
-17.4675324675
 30
0.0
 11
1.461038961
 21
-20.0
 31
0.0
  0
LINE
  5
115
330
1F
100
AcDbEntity
  8
0
  6
Continuous
 62
     7
370
    25
100
AcDbLine
 10
-5.9415584416
 20
-17.4675324675
 30
0.0
 11
1.461038961
 21
-17.4675324675
 31
0.0
  0
LINE
  5
116
330
1F
100
AcDbEntity
  8
0
  6
Continuous
 62
     7
370
    25
100
AcDbLine
 10
-5.9415584416
 20
-13.3766233766
 30
0.0
 11
-5.9415584416
 21
-17.4675324675
 31
0.0
  0
LINE
  5
117
330
1F
100
AcDbEntity
  8
0
  6
Continuous
 62
     7
370
    25
100
AcDbLine
 10
0.8766233766
 20
-13.3766233766
 30
0.0
 11
-5.9415584416
 21
-13.3766233766
 31
0.0
  0
LINE
  5
118
330
1F
100
AcDbEntity
  8
0
  6
Continuous
 62
     7
370
    25
100
AcDbLine
 10
0.8766233766
 20
-11.038961039
 30
0.0
 11
0.8766233766
 21
-13.3766233766
 31
0.0
  0
LINE
  5
119
330
1F
100
AcDbEntity
  8
0
  6
Continuous
 62
     7
370
    25
100
AcDbLine
 10
-5.9415584416
 20
-11.038961039
 30
0.0
 11
0.8766233766
 21
-11.038961039
 31
0.0
  0
LINE
  5
11A
330
1F
100
AcDbEntity
  8
0
  6
Continuous
 62
     7
370
    25
100
AcDbLine
 10
-5.9415584416
 20
-7.5324675325
 30
0.0
 11
-5.9415584416
 21
-11.038961039
 31
0.0
  0
LINE
  5
11B
330
1F
100
AcDbEntity
  8
0
  6
Continuous
 62
     7
370
    25
100
AcDbLine
 10
1.2662337662
 20
-7.5324675325
 30
0.0
 11
-5.9415584416
 21
-7.5324675325
 31
0.0
  0
LINE
  5
11C
330
1F
100
AcDbEntity
  8
0
  6
Continuous
 62
     7
370
    25
100
AcDbLine
 10
1.2662337662
 20
-5.0
 30
0.0
 11
1.2662337662
 21
-7.5324675325
 31
0.0
  0
LINE
  5
11D
330
1F
100
AcDbEntity
  8
0
  6
Continuous
 62
     7
370
    25
100
AcDbLine
 10
-8.6688311688
 20
-5.0
 30
0.0
 11
1.2662337662
 21
-5.0
 31
0.0
  0
LINE
  5
11E
330
1F
100
AcDbEntity
  8
0
  6
Continuous
 62
     7
370
    25
100
AcDbLine
 10
-8.6688311688
 20
-20.0
 30
0.0
 11
-8.6688311688
 21
-5.0
 31
0.0
  0
LINE
  5
11F
330
1F
100
AcDbEntity
  8
0
  6
Continuous
 62
     7
370
    25
100
AcDbLine
 10
1.461038961
 20
-20.0
 30
0.0
 11
-8.6688311688
 21
-20.0
 31
0.0
  0
LINE
  5
120
330
1F
100
AcDbEntity
  8
0
  6
Continuous
 62
     7
370
    25
100
AcDbLine
 10
25.8116883117
 20
-17.4675324675
 30
0.0
 11
25.8116883117
 21
-20.0
 31
0.0
  0
LINE
  5
121
330
1F
100
AcDbEntity
  8
0
  6
Continuous
 62
     7
370
    25
100
AcDbLine
 10
18.0590503247
 20
-17.4675324675
 30
0.0
 11
25.8116883117
 21
-17.4675324675
 31
0.0
  0
LINE
  5
122
330
1F
100
AcDbEntity
  8
0
  6
Continuous
 62
     7
370
    25
100
AcDbLine
 10
25.6168831169
 20
-7.3498376623
 30
0.0
 11
18.0590503247
 21
-17.4675324675
 31
0.0
  0
LINE
  5
123
330
1F
100
AcDbEntity
  8
0
  6
Continuous
 62
     7
370
    25
100
AcDbLine
 10
25.6168831169
 20
-5.0
 30
0.0
 11
25.6168831169
 21
-7.3498376623
 31
0.0
  0
LINE
  5
124
330
1F
100
AcDbEntity
  8
0
  6
Continuous
 62
     7
370
    25
100
AcDbLine
 10
15.6818181818
 20
-5.0
 30
0.0
 11
25.6168831169
 21
-5.0
 31
0.0
  0
LINE
  5
125
330
1F
100
AcDbEntity
  8
0
  6
Continuous
 62
     7
370
    25
100
AcDbLine
 10
15.6818181818
 20
-7.5324675325
 30
0.0
 11
15.6818181818
 21
-5.0
 31
0.0
  0
LINE
  5
126
330
1F
100
AcDbEntity
  8
0
  6
Continuous
 62
     7
370
    25
100
AcDbLine
 10
22.1712662338
 20
-7.5324675325
 30
0.0
 11
15.6818181818
 21
-7.5324675325
 31
0.0
  0
LINE
  5
127
330
1F
100
AcDbEntity
  8
0
  6
Continuous
 62
     7
370
    25
100
AcDbLine
 10
14.9025974026
 20
-17.2635957792
 30
0.0
 11
22.1712662338
 21
-7.5324675325
 31
0.0
  0
LINE
  5
128
330
1F
100
AcDbEntity
  8
0
  6
Continuous
 62
     7
370
    25
100
AcDbLine
 10
14.9025974026
 20
-20.0
 30
0.0
 11
14.9025974026
 21
-17.2635957792
 31
0.0
  0
LINE
  5
129
330
1F
100
AcDbEntity
  8
0
  6
Continuous
 62
     7
370
    25
100
AcDbLine
 10
25.8116883117
 20
-20.0
 30
0.0
 11
14.9025974026
 21
-20.0
 31
0.0
  0
LINE
  5
12A
330
1F
100
AcDbEntity
  8
0
  6
Continuous
 62
     7
370
    25
100
AcDbLine
 10
16.0
 20
4.3536207234
 30
0.0
 11
16.0
 21
30.7536207234
 31
0.0
  0
LINE
  5
12B
330
1F
100
AcDbEntity
  8
0
  6
Continuous
 62
     7
370
    25
100
AcDbLine
 10
19.2
 20
3.5536207234
 30
0.0
 11
16.8
 21
3.5536207234
 31
0.0
  0
LINE
  5
12C
330
1F
100
AcDbEntity
  8
0
  6
Continuous
 62
     7
370
    25
100
AcDbLine
 10
20.0
 20
4.3536207234
 30
0.0
 11
20.0
 21
30.7536207234
 31
0.0
  0
LINE
  5
12D
330
1F
100
AcDbEntity
  8
0
  6
Continuous
 62
     7
370
    25
100
AcDbLine
 10
19.2
 20
31.5536207234
 30
0.0
 11
16.8
 21
31.5536207234
 31
0.0
  0
LINE
  5
12E
330
1F
100
AcDbEntity
  8
0
  6
Continuous
 62
     7
370
    25
100
AcDbLine
 10
-8.0
 20
13.9536207234
 30
0.0
 11
-8.0
 21
21.1536207234
 31
0.0
  0
LINE
  5
12F
330
1F
100
AcDbEntity
  8
0
  6
Continuous
 62
     7
370
    25
100
AcDbLine
 10
-5.6
 20
11.5536207234
 30
0.0
 11
5.6
 21
11.5536207234
 31
0.0
  0
LINE
  5
130
330
1F
100
AcDbEntity
  8
0
  6
Continuous
 62
     7
370
    25
100
AcDbLine
 10
8.0
 20
13.9536207234
 30
0.0
 11
8.0
 21
21.1536207234
 31
0.0
  0
LINE
  5
131
330
1F
100
AcDbEntity
  8
0
  6
Continuous
 62
     7
370
    25
100
AcDbLine
 10
-5.6
 20
23.5536207234
 30
0.0
 11
5.6
 21
23.5536207234
 31
0.0
  0
LINE
  5
132
330
1F
100
AcDbEntity
  8
0
  6
Continuous
 62
     7
370
    25
100
AcDbLine
 10
15.3282032303
 20
34.9536207234
 30
0.0
 11
23.3282032303
 21
34.9536207234
 31
0.0
  0
LINE
  5
133
330
1F
100
AcDbEntity
  8
0
  6
Continuous
 62
     7
370
    25
100
AcDbLine
 10
15.3282032303
 20
33.7536207234
 30
0.0
 11
15.3282032303
 21
34.9536207234
 31
0.0
  0
LINE
  5
134
330
1F
100
AcDbEntity
  8
0
  6
Continuous
 62
     7
370
    25
100
AcDbLine
 10
15.3282032303
 20
33.7536207234
 30
0.0
 11
23.3282032303
 21
33.7536207234
 31
0.0
  0
LINE
  5
135
330
1F
100
AcDbEntity
  8
0
  6
Continuous
 62
     7
370
    25
100
AcDbLine
 10
23.3282032303
 20
33.7536207234
 30
0.0
 11
23.3282032303
 21
34.9536207234
 31
0.0
  0
LINE
  5
136
330
1F
100
AcDbEntity
  8
0
  6
Continuous
 62
     7
370
    25
100
AcDbLine
 10
7.092820323
 20
30.0608004003
 30
0.0
 11
13.6497422612
 21
33.8464410464
 31
0.0
  0
LINE
  5
137
330
1F
100
AcDbEntity
  8
0
  6
Continuous
 62
     7
370
    25
100
AcDbLine
 10
14.0497422612
 20
33.9536207234
 30
0.0
 11
14.5282032303
 21
33.9536207234
 31
0.0
  0
LINE
  5
138
330
1F
100
AcDbEntity
  8
0
  6
Continuous
 62
     7
370
    25
100
AcDbLine
 10
14.5282032303
 20
34.7536207234
 30
0.0
 11
14.5282032303
 21
33.9536207234
 31
0.0
  0
LINE
  5
139
330
1F
100
AcDbEntity
  8
0
  6
Continuous
 62
     7
370
    25
100
AcDbLine
 10
13.8353829072
 20
34.7536207234
 30
0.0
 11
14.5282032303
 21
34.7536207234
 31
0.0
  0
LINE
  5
13A
330
1F
100
AcDbEntity
  8
0
  6
Continuous
 62
     7
370
    25
100
AcDbLine
 10
6.8784609691
 20
30.8608004003
 30
0.0
 11
13.4353829072
 21
34.6464410464
 31
0.0
  0
LINE
  5
13B
330
1F
100
AcDbEntity
  8
0
  6
Continuous
 62
     7
370
    25
100
AcDbLine
 10
2.8
 20
30.7536207234
 30
0.0
 11
6.4784609691
 21
30.7536207234
 31
0.0
  0
LINE
  5
13C
330
1F
100
AcDbEntity
  8
0
  6
Continuous
 62
     7
370
    25
100
AcDbLine
 10
2.8
 20
29.9536207234
 30
0.0
 11
2.8
 21
30.7536207234
 31
0.0
  0
LINE
  5
13D
330
1F
100
AcDbEntity
  8
0
  6
Continuous
 62
     7
370
    25
100
AcDbLine
 10
2.8
 20
29.9536207234
 30
0.0
 11
6.692820323
 21
29.9536207234
 31
0.0
  0
LINE
  5
13E
330
1F
100
AcDbEntity
  8
0
  6
Continuous
 62
     7
370
    25
100
AcDbLine
 10
-14.4
 20
21.5536207234
 30
0.0
 11
-9.6
 21
21.5536207234
 31
0.0
  0
LINE
  5
13F
330
1F
100
AcDbEntity
  8
0
  6
Continuous
 62
     7
370
    25
100
AcDbLine
 10
-15.2
 20
14.3536207234
 30
0.0
 11
-15.2
 21
20.7536207234
 31
0.0
  0
LINE
  5
140
330
1F
100
AcDbEntity
  8
0
  6
Continuous
 62
     7
370
    25
100
AcDbLine
 10
-14.4
 20
13.5536207234
 30
0.0
 11
-9.6
 21
13.5536207234
 31
0.0
  0
LINE
  5
141
330
1F
100
AcDbEntity
  8
0
  6
Continuous
 62
     7
370
    25
100
AcDbLine
 10
-8.8
 20
14.3536207234
 30
0.0
 11
-8.8
 21
20.7536207234
 31
0.0
  0
LINE
  5
142
330
1F
100
AcDbEntity
  8
0
  6
Continuous
 62
     7
370
    25
100
AcDbLine
 10
-1.2
 20
29.1536207234
 30
0.0
 11
1.2
 21
29.1536207234
 31
0.0
  0
LINE
  5
143
330
1F
100
AcDbEntity
  8
0
  6
Continuous
 62
     7
370
    25
100
AcDbLine
 10
2.0
 20
30.7536207234
 30
0.0
 11
2.0
 21
29.9536207234
 31
0.0
  0
LINE
  5
144
330
1F
100
AcDbEntity
  8
0
  6
Continuous
 62
     7
370
    25
100
AcDbLine
 10
-1.2
 20
31.5536207234
 30
0.0
 11
1.2
 21
31.5536207234
 31
0.0
  0
LINE
  5
145
330
1F
100
AcDbEntity
  8
0
  6
Continuous
 62
     7
370
    25
100
AcDbLine
 10
-2.0
 20
30.7536207234
 30
0.0
 11
-2.0
 21
29.9536207234
 31
0.0
  0
LINE
  5
146
330
1F
100
AcDbEntity
  8
0
  6
Continuous
 62
     7
370
    25
100
AcDbLine
 10
-2.0
 20
27.5536207234
 30
0.0
 11
-2.0
 21
25.1536207234
 31
0.0
  0
LINE
  5
147
330
1F
100
AcDbEntity
  8
0
  6
Continuous
 62
     7
370
    25
100
AcDbLine
 10
-1.2
 20
24.3536207234
 30
0.0
 11
1.2
 21
24.3536207234
 31
0.0
  0
LINE
  5
148
330
1F
100
AcDbEntity
  8
0
  6
Continuous
 62
     7
370
    25
100
AcDbLine
 10
2.0
 20
27.5536207234
 30
0.0
 11
2.0
 21
25.1536207234
 31
0.0
  0
LINE
  5
149
330
1F
100
AcDbEntity
  8
0
  6
Continuous
 62
     7
370
    25
100
AcDbLine
 10
-1.2
 20
28.3536207234
 30
0.0
 11
1.2
 21
28.3536207234
 31
0.0
  0
LINE
  5
14A
330
1F
100
AcDbEntity
  8
0
  6
Continuous
 62
     7
370
    25
100
AcDbLine
 10
8.8
 20
14.3536207234
 30
0.0
 11
8.8
 21
20.7536207234
 31
0.0
  0
LINE
  5
14B
330
1F
100
AcDbEntity
  8
0
  6
Continuous
 62
     7
370
    25
100
AcDbLine
 10
14.4
 20
13.5536207234
 30
0.0
 11
9.6
 21
13.5536207234
 31
0.0
  0
LINE
  5
14C
330
1F
100
AcDbEntity
  8
0
  6
Continuous
 62
     7
370
    25
100
AcDbLine
 10
15.2
 20
14.3536207234
 30
0.0
 11
15.2
 21
20.7536207234
 31
0.0
  0
LINE
  5
14D
330
1F
100
AcDbEntity
  8
0
  6
Continuous
 62
     7
370
    25
100
AcDbLine
 10
14.4
 20
21.5536207234
 30
0.0
 11
9.6
 21
21.5536207234
 31
0.0
  0
LINE
  5
14E
330
1F
100
AcDbEntity
  8
0
  6
Continuous
 62
     7
370
    25
100
AcDbLine
 10
-20.0
 20
4.3536207234
 30
0.0
 11
-20.0
 21
30.7536207234
 31
0.0
  0
LINE
  5
14F
330
1F
100
AcDbEntity
  8
0
  6
Continuous
 62
     7
370
    25
100
AcDbLine
 10
-19.2
 20
3.5536207234
 30
0.0
 11
-16.8
 21
3.5536207234
 31
0.0
  0
LINE
  5
150
330
1F
100
AcDbEntity
  8
0
  6
Continuous
 62
     7
370
    25
100
AcDbLine
 10
-16.0
 20
4.3536207234
 30
0.0
 11
-16.0
 21
30.7536207234
 31
0.0
  0
LINE
  5
151
330
1F
100
AcDbEntity
  8
0
  6
Continuous
 62
     7
370
    25
100
AcDbLine
 10
-19.2
 20
31.5536207234
 30
0.0
 11
-16.8
 21
31.5536207234
 31
0.0
  0
LINE
  5
152
330
1F
100
AcDbEntity
  8
0
  6
Continuous
 62
     7
370
    25
100
AcDbLine
 10
37.8896103896
 20
-17.4675324675
 30
0.0
 11
37.8896103896
 21
-20.0
 31
0.0
  0
LINE
  5
153
330
1F
100
AcDbEntity
  8
0
  6
Continuous
 62
     7
370
    25
100
AcDbLine
 10
30.487012987
 20
-17.4675324675
 30
0.0
 11
37.8896103896
 21
-17.4675324675
 31
0.0
  0
LINE
  5
154
330
1F
100
AcDbEntity
  8
0
  6
Continuous
 62
     7
370
    25
100
AcDbLine
 10
30.487012987
 20
-13.3766233766
 30
0.0
 11
30.487012987
 21
-17.4675324675
 31
0.0
  0
LINE
  5
155
330
1F
100
AcDbEntity
  8
0
  6
Continuous
 62
     7
370
    25
100
AcDbLine
 10
37.3051948052
 20
-13.3766233766
 30
0.0
 11
30.487012987
 21
-13.3766233766
 31
0.0
  0
LINE
  5
156
330
1F
100
AcDbEntity
  8
0
  6
Continuous
 62
     7
370
    25
100
AcDbLine
 10
37.3051948052
 20
-11.038961039
 30
0.0
 11
37.3051948052
 21
-13.3766233766
 31
0.0
  0
LINE
  5
157
330
1F
100
AcDbEntity
  8
0
  6
Continuous
 62
     7
370
    25
100
AcDbLine
 10
30.487012987
 20
-11.038961039
 30
0.0
 11
37.3051948052
 21
-11.038961039
 31
0.0
  0
LINE
  5
158
330
1F
100
AcDbEntity
  8
0
  6
Continuous
 62
     7
370
    25
100
AcDbLine
 10
30.487012987
 20
-7.5324675325
 30
0.0
 11
30.487012987
 21
-11.038961039
 31
0.0
  0
LINE
  5
159
330
1F
100
AcDbEntity
  8
0
  6
Continuous
 62
     7
370
    25
100
AcDbLine
 10
37.6948051948
 20
-7.5324675325
 30
0.0
 11
30.487012987
 21
-7.5324675325
 31
0.0
  0
LINE
  5
15A
330
1F
100
AcDbEntity
  8
0
  6
Continuous
 62
     7
370
    25
100
AcDbLine
 10
37.6948051948
 20
-5.0
 30
0.0
 11
37.6948051948
 21
-7.5324675325
 31
0.0
  0
LINE
  5
15B
330
1F
100
AcDbEntity
  8
0
  6
Continuous
 62
     7
370
    25
100
AcDbLine
 10
27.7597402597
 20
-5.0
 30
0.0
 11
37.6948051948
 21
-5.0
 31
0.0
  0
LINE
  5
15C
330
1F
100
AcDbEntity
  8
0
  6
Continuous
 62
     7
370
    25
100
AcDbLine
 10
27.7597402597
 20
-20.0
 30
0.0
 11
27.7597402597
 21
-5.0
 31
0.0
  0
LINE
  5
15D
330
1F
100
AcDbEntity
  8
0
  6
Continuous
 62
     7
370
    25
100
AcDbLine
 10
37.8896103896
 20
-20.0
 30
0.0
 11
27.7597402597
 21
-20.0
 31
0.0
  0
LINE
  5
15E
330
1F
100
AcDbEntity
  8
0
  6
Continuous
 62
     7
370
    25
100
AcDbLine
 10
13.9285714286
 20
-17.4675324675
 30
0.0
 11
13.9285714286
 21
-20.0
 31
0.0
  0
LINE
  5
15F
330
1F
100
AcDbEntity
  8
0
  6
Continuous
 62
     7
370
    25
100
AcDbLine
 10
6.525974026
 20
-17.4675324675
 30
0.0
 11
13.9285714286
 21
-17.4675324675
 31
0.0
  0
LINE
  5
160
330
1F
100
AcDbEntity
  8
0
  6
Continuous
 62
     7
370
    25
100
AcDbLine
 10
6.525974026
 20
-13.3766233766
 30
0.0
 11
6.525974026
 21
-17.4675324675
 31
0.0
  0
LINE
  5
161
330
1F
100
AcDbEntity
  8
0
  6
Continuous
 62
     7
370
    25
100
AcDbLine
 10
13.3441558442
 20
-13.3766233766
 30
0.0
 11
6.525974026
 21
-13.3766233766
 31
0.0
  0
LINE
  5
162
330
1F
100
AcDbEntity
  8
0
  6
Continuous
 62
     7
370
    25
100
AcDbLine
 10
13.3441558442
 20
-11.038961039
 30
0.0
 11
13.3441558442
 21
-13.3766233766
 31
0.0
  0
LINE
  5
163
330
1F
100
AcDbEntity
  8
0
  6
Continuous
 62
     7
370
    25
100
AcDbLine
 10
6.525974026
 20
-11.038961039
 30
0.0
 11
13.3441558442
 21
-11.038961039
 31
0.0
  0
LINE
  5
164
330
1F
100
AcDbEntity
  8
0
  6
Continuous
 62
     7
370
    25
100
AcDbLine
 10
6.525974026
 20
-7.5324675325
 30
0.0
 11
6.525974026
 21
-11.038961039
 31
0.0
  0
LINE
  5
165
330
1F
100
AcDbEntity
  8
0
  6
Continuous
 62
     7
370
    25
100
AcDbLine
 10
13.7337662338
 20
-7.5324675325
 30
0.0
 11
6.525974026
 21
-7.5324675325
 31
0.0
  0
LINE
  5
166
330
1F
100
AcDbEntity
  8
0
  6
Continuous
 62
     7
370
    25
100
AcDbLine
 10
13.7337662338
 20
-5.0
 30
0.0
 11
13.7337662338
 21
-7.5324675325
 31
0.0
  0
LINE
  5
167
330
1F
100
AcDbEntity
  8
0
  6
Continuous
 62
     7
370
    25
100
AcDbLine
 10
3.7987012987
 20
-5.0
 30
0.0
 11
13.7337662338
 21
-5.0
 31
0.0
  0
LINE
  5
168
330
1F
100
AcDbEntity
  8
0
  6
Continuous
 62
     7
370
    25
100
AcDbLine
 10
3.7987012987
 20
-20.0
 30
0.0
 11
3.7987012987
 21
-5.0
 31
0.0
  0
LINE
  5
169
330
1F
100
AcDbEntity
  8
0
  6
Continuous
 62
     7
370
    25
100
AcDbLine
 10
13.9285714286
 20
-20.0
 30
0.0
 11
3.7987012987
 21
-20.0
 31
0.0
  0
LINE
  5
16A
330
1F
100
AcDbEntity
  8
0
  6
Continuous
 62
     7
370
    25
100
AcDbLine
 10
-19.3831168831
 20
-13.7662337662
 30
0.0
 11
-19.3831168831
 21
-20.0
 31
0.0
  0
LINE
  5
16B
330
1F
100
AcDbEntity
  8
0
  6
Continuous
 62
     7
370
    25
100
AcDbLine
 10
-18.8352272727
 20
-13.7662337662
 30
0.0
 11
-19.3831168831
 21
-13.7662337662
 31
0.0
  0
LINE
  5
16C
330
1F
100
AcDbEntity
  8
0
  6
Continuous
 62
     7
370
    25
100
AcDbLine
 10
-13.4689529221
 20
-20.0
 30
0.0
 11
-15.3256899351
 21
-16.7248376623
 31
0.0
  0
LINE
  5
16D
330
1F
100
AcDbEntity
  8
0
  6
Continuous
 62
     7
370
    25
100
AcDbLine
 10
-10.2272727273
 20
-20.0
 30
0.0
 11
-13.4689529221
 21
-20.0
 31
0.0
  0
LINE
  5
16E
330
1F
100
AcDbEntity
  8
0
  6
Continuous
 62
     7
370
    25
100
AcDbLine
 10
-11.7644074675
 20
-17.0627029221
 30
0.0
 11
-10.2272727273
 21
-20.0
 31
0.0
  0
LINE
  5
16F
330
1F
100
AcDbEntity
  8
0
  6
Continuous
 62
     7
370
    25
100
AcDbLine
 10
-22.1103896104
 20
-5.0
 30
0.0
 11
-16.4397321429
 21
-5.0
 31
0.0
  0
LINE
  5
170
330
1F
100
AcDbEntity
  8
0
  6
Continuous
 62
     7
370
    25
100
AcDbLine
 10
-22.1103896104
 20
-20.0
 30
0.0
 11
-22.1103896104
 21
-5.0
 31
0.0
  0
LINE
  5
171
330
1F
100
AcDbEntity
  8
0
  6
Continuous
 62
     7
370
    25
100
AcDbLine
 10
-19.3831168831
 20
-20.0
 30
0.0
 11
-22.1103896104
 21
-20.0
 31
0.0
  0
LINE
  5
172
330
1F
100
AcDbEntity
  8
0
  6
Continuous
 62
     7
370
    25
100
AcDbLine
 10
-32.8246753247
 20
-10.8441558442
 30
0.0
 11
-30.9679383117
 21
-10.8441558442
 31
0.0
  0
LINE
  5
173
330
1F
100
AcDbEntity
  8
0
  6
Continuous
 62
     7
370
    25
100
AcDbLine
 10
-32.8246753247
 20
-7.5324675325
 30
0.0
 11
-32.8246753247
 21
-10.8441558442
 31
0.0
  0
LINE
  5
174
330
1F
100
AcDbEntity
  8
0
  6
Continuous
 62
     7
370
    25
100
AcDbLine
 10
-31.1992694805
 20
-7.5324675325
 30
0.0
 11
-32.8246753247
 21
-7.5324675325
 31
0.0
  0
LINE
  5
175
330
1F
100
AcDbEntity
  8
0
  6
Continuous
 62
     7
370
    25
100
AcDbLine
 10
-17.2737418831
 20
-7.5324675325
 30
0.0
 11
-19.3831168831
 21
-7.5324675325
 31
0.0
  0
LINE
  5
176
330
1F
100
AcDbEntity
  8
0
  6
Continuous
 62
     7
370
    25
100
AcDbLine
 10
-19.3831168831
 20
-7.5324675325
 30
0.0
 11
-19.3831168831
 21
-11.2337662338
 31
0.0
  0
LINE
  5
177
330
1F
100
AcDbEntity
  8
0
  6
Continuous
 62
     7
370
    25
100
AcDbLine
 10
-19.3831168831
 20
-11.2337662338
 30
0.0
 11
-17.3833198052
 21
-11.2337662338
 31
0.0
  0
LINE
  5
178
330
1F
100
AcDbEntity
  8
0
  6
Continuous
 62
     7
370
    25
100
AcDbLine
 10
-32.8246753247
 20
-17.4675324675
 30
0.0
 11
-30.2678571429
 21
-17.4675324675
 31
0.0
  0
LINE
  5
179
330
1F
100
AcDbEntity
  8
0
  6
Continuous
 62
     7
370
    25
100
AcDbLine
 10
-30.5965909091
 20
-13.3766233766
 30
0.0
 11
-32.8246753247
 21
-13.3766233766
 31
0.0
  0
LINE
  5
17A
330
1F
100
AcDbEntity
  8
0
  6
Continuous
 62
     7
370
    25
100
AcDbLine
 10
-32.8246753247
 20
-13.3766233766
 30
0.0
 11
-32.8246753247
 21
-17.4675324675
 31
0.0
  0
ARC
  5
17B
330
1F
100
AcDbEntity
  8
0
  6
Continuous
 62
     7
370
    25
100
AcDbCircle
 10
16.8
 20
4.3536207234
 30
0.0
 40
0.7999999999999954
100
AcDbArc
 50
180.0
 51
270.0
  0
ARC
  5
17C
330
1F
100
AcDbEntity
  8
0
  6
Continuous
 62
     7
370
    25
100
AcDbCircle
 10
19.2
 20
4.3536207234
 30
0.0
 40
0.8000000000000007
100
AcDbArc
 50
270.0
 51
0.0
  0
ARC
  5
17D
330
1F
100
AcDbEntity
  8
0
  6
Continuous
 62
     7
370
    25
100
AcDbCircle
 10
19.2
 20
30.7536207234
 30
0.0
 40
0.7999999999999972
100
AcDbArc
 50
0.0
 51
90.0
  0
ARC
  5
17E
330
1F
100
AcDbEntity
  8
0
  6
Continuous
 62
     7
370
    25
100
AcDbCircle
 10
16.8
 20
30.7536207234
 30
0.0
 40
0.7999999999999972
100
AcDbArc
 50
90.0
 51
180.0
  0
ARC
  5
17F
330
1F
100
AcDbEntity
  8
0
  6
Continuous
 62
     7
370
    25
100
AcDbCircle
 10
-5.6
 20
13.9536207234
 30
0.0
 40
2.400000000000027
100
AcDbArc
 50
180.0
 51
270.0
  0
ARC
  5
180
330
1F
100
AcDbEntity
  8
0
  6
Continuous
 62
     7
370
    25
100
AcDbCircle
 10
5.6
 20
13.9536207234
 30
0.0
 40
2.400000000000027
100
AcDbArc
 50
270.0
 51
0.0
  0
ARC
  5
181
330
1F
100
AcDbEntity
  8
0
  6
Continuous
 62
     7
370
    25
100
AcDbCircle
 10
5.6
 20
21.1536207234
 30
0.0
 40
2.400000000000031
100
AcDbArc
 50
0.0
 51
90.0
  0
ARC
  5
182
330
1F
100
AcDbEntity
  8
0
  6
Continuous
 62
     7
370
    25
100
AcDbCircle
 10
-5.6
 20
21.1536207234
 30
0.0
 40
2.399999999999982
100
AcDbArc
 50
90.0
 51
180.0
  0
ARC
  5
183
330
1F
100
AcDbEntity
  8
0
  6
Continuous
 62
     7
370
    25
100
AcDbCircle
 10
14.0497422612
 20
33.1536207234
 30
0.0
 40
0.7999999999997777
100
AcDbArc
 50
90.0
 51
120.0
  0
ARC
  5
184
330
1F
100
AcDbEntity
  8
0
  6
Continuous
 62
     7
370
    25
100
AcDbCircle
 10
13.8353829072
 20
33.9536207234
 30
0.0
 40
0.7999999999996064
100
AcDbArc
 50
90.0
 51
120.0
  0
ARC
  5
185
330
1F
100
AcDbEntity
  8
0
  6
Continuous
 62
     7
370
    25
100
AcDbCircle
 10
6.4784609691
 20
31.5536207234
 30
0.0
 40
0.8000000000002423
100
AcDbArc
 50
270.0
 51
300.0
  0
ARC
  5
186
330
1F
100
AcDbEntity
  8
0
  6
Continuous
 62
     7
370
    25
100
AcDbCircle
 10
6.692820323
 20
30.7536207234
 30
0.0
 40
0.7999999999999012
100
AcDbArc
 50
270.0
 51
300.0
  0
ARC
  5
187
330
1F
100
AcDbEntity
  8
0
  6
Continuous
 62
     7
370
    25
100
AcDbCircle
 10
-14.4
 20
20.7536207234
 30
0.0
 40
0.7999999999999972
100
AcDbArc
 50
90.0
 51
180.0
  0
ARC
  5
188
330
1F
100
AcDbEntity
  8
0
  6
Continuous
 62
     7
370
    25
100
AcDbCircle
 10
-14.4
 20
14.3536207234
 30
0.0
 40
0.7999999999999954
100
AcDbArc
 50
180.0
 51
270.0
  0
ARC
  5
189
330
1F
100
AcDbEntity
  8
0
  6
Continuous
 62
     7
370
    25
100
AcDbCircle
 10
-9.6
 20
14.3536207234
 30
0.0
 40
0.7999999999999918
100
AcDbArc
 50
270.0
 51
0.0
  0
ARC
  5
18A
330
1F
100
AcDbEntity
  8
0
  6
Continuous
 62
     7
370
    25
100
AcDbCircle
 10
-9.6
 20
20.7536207234
 30
0.0
 40
0.7999999999999954
100
AcDbArc
 50
0.0
 51
90.0
  0
ARC
  5
18B
330
1F
100
AcDbEntity
  8
0
  6
Continuous
 62
     7
370
    25
100
AcDbCircle
 10
1.2
 20
29.9536207234
 30
0.0
 40
0.799999999999983
100
AcDbArc
 50
270.0
 51
0.0
  0
ARC
  5
18C
330
1F
100
AcDbEntity
  8
0
  6
Continuous
 62
     7
370
    25
100
AcDbCircle
 10
1.2
 20
30.7536207234
 30
0.0
 40
0.7999999999999938
100
AcDbArc
 50
0.0
 51
90.0
  0
ARC
  5
18D
330
1F
100
AcDbEntity
  8
0
  6
Continuous
 62
     7
370
    25
100
AcDbCircle
 10
-1.2
 20
30.7536207234
 30
0.0
 40
0.8000000000000009
100
AcDbArc
 50
90.0
 51
180.0
  0
ARC
  5
18E
330
1F
100
AcDbEntity
  8
0
  6
Continuous
 62
     7
370
    25
100
AcDbCircle
 10
-1.2
 20
29.9536207234
 30
0.0
 40
0.7999999999999725
100
AcDbArc
 50
180.0
 51
270.0
  0
ARC
  5
18F
330
1F
100
AcDbEntity
  8
0
  6
Continuous
 62
     7
370
    25
100
AcDbCircle
 10
-1.2
 20
27.5536207234
 30
0.0
 40
0.8000000000000009
100
AcDbArc
 50
90.0
 51
180.0
  0
ARC
  5
190
330
1F
100
AcDbEntity
  8
0
  6
Continuous
 62
     7
370
    25
100
AcDbCircle
 10
-1.2
 20
25.1536207234
 30
0.0
 40
0.7999999999999972
100
AcDbArc
 50
180.0
 51
270.0
  0
ARC
  5
191
330
1F
100
AcDbEntity
  8
0
  6
Continuous
 62
     7
370
    25
100
AcDbCircle
 10
1.2
 20
25.1536207234
 30
0.0
 40
0.7999999999999936
100
AcDbArc
 50
270.0
 51
0.0
  0
ARC
  5
192
330
1F
100
AcDbEntity
  8
0
  6
Continuous
 62
     7
370
    25
100
AcDbCircle
 10
1.2
 20
27.5536207234
 30
0.0
 40
0.7999999999999972
100
AcDbArc
 50
0.0
 51
90.0
  0
ARC
  5
193
330
1F
100
AcDbEntity
  8
0
  6
Continuous
 62
     7
370
    25
100
AcDbCircle
 10
9.6
 20
14.3536207234
 30
0.0
 40
0.7999999999999936
100
AcDbArc
 50
180.0
 51
270.0
  0
ARC
  5
194
330
1F
100
AcDbEntity
  8
0
  6
Continuous
 62
     7
370
    25
100
AcDbCircle
 10
14.4
 20
14.3536207234
 30
0.0
 40
0.7999999999999918
100
AcDbArc
 50
270.0
 51
0.0
  0
ARC
  5
195
330
1F
100
AcDbEntity
  8
0
  6
Continuous
 62
     7
370
    25
100
AcDbCircle
 10
14.4
 20
20.7536207234
 30
0.0
 40
0.7999999999999936
100
AcDbArc
 50
0.0
 51
90.0
  0
ARC
  5
196
330
1F
100
AcDbEntity
  8
0
  6
Continuous
 62
     7
370
    25
100
AcDbCircle
 10
9.6
 20
20.7536207234
 30
0.0
 40
0.7999999999999936
100
AcDbArc
 50
90.0
 51
180.0
  0
ARC
  5
197
330
1F
100
AcDbEntity
  8
0
  6
Continuous
 62
     7
370
    25
100
AcDbCircle
 10
-19.2
 20
4.3536207234
 30
0.0
 40
0.8000000000000007
100
AcDbArc
 50
180.0
 51
270.0
  0
ARC
  5
198
330
1F
100
AcDbEntity
  8
0
  6
Continuous
 62
     7
370
    25
100
AcDbCircle
 10
-16.8
 20
4.3536207234
 30
0.0
 40
0.7999999999999972
100
AcDbArc
 50
270.0
 51
0.0
  0
ARC
  5
199
330
1F
100
AcDbEntity
  8
0
  6
Continuous
 62
     7
370
    25
100
AcDbCircle
 10
-16.8
 20
30.7536207234
 30
0.0
 40
0.7999999999999972
100
AcDbArc
 50
0.0
 51
90.0
  0
ARC
  5
19A
330
1F
100
AcDbEntity
  8
0
  6
Continuous
 62
     7
370
    25
100
AcDbCircle
 10
-19.2
 20
30.7536207234
 30
0.0
 40
0.7999999999999936
100
AcDbArc
 50
90.0
 51
180.0
  0
ENDSEC
  0
SECTION
  2
OBJECTS
  0
DICTIONARY
  5
C
330
0
100
AcDbDictionary
281
     1
  3
ACAD_GROUP
350
D
  3
ACAD_LAYOUT
350
1A
  3
ACAD_MLINESTYLE
350
17
  3
ACAD_PLOTSETTINGS
350
19
  3
ACAD_PLOTSTYLENAME
350
E
  3
ACAD_SCALELIST
350
47
  0
DICTIONARY
  5
D
102
{ACAD_REACTORS
330
C
102
}
330
C
100
AcDbDictionary
281
     1
  0
DICTIONARY
  5
1A
102
{ACAD_REACTORS
330
C
102
}
330
C
100
AcDbDictionary
281
     1
  3
Layout1
350
1E
  3
Layout2
350
26
  3
Model
350
22
  0
DICTIONARY
  5
17
102
{ACAD_REACTORS
330
C
102
}
330
C
100
AcDbDictionary
281
     1
  3
Standard
350
18
  0
DICTIONARY
  5
19
102
{ACAD_REACTORS
330
C
102
}
330
C
100
AcDbDictionary
281
     1
  0
ACDBDICTIONARYWDFLT
  5
E
102
{ACAD_REACTORS
330
C
102
}
330
C
100
AcDbDictionary
281
     1
  3
Normal
350
F
100
AcDbDictionaryWithDefault
340
F
  0
DICTIONARY
  5
47
102
{ACAD_REACTORS
330
C
102
}
330
C
100
AcDbDictionary
281
     1
  3
A0
350
48
  3
A1
350
49
  3
A2
350
4A
  3
A3
350
4B
  3
A4
350
4C
  3
A5
350
4D
  3
A6
350
4E
  3
A7
350
4F
  3
A8
350
50
  3
A9
350
51
  3
B0
350
52
  3
B1
350
53
  3
B2
350
54
  3
B3
350
55
  3
B4
350
56
  3
B5
350
57
  3
B6
350
58
  3
B7
350
59
  3
B8
350
5A
  3
B9
350
5B
  3
C0
350
5C
  3
C1
350
5D
  3
C2
350
5E
  3
C3
350
5F
  3
C4
350
60
  3
C5
350
61
  3
C6
350
62
  3
C7
350
63
  3
C8
350
64
  3
C9
350
65
  3
D0
350
66
  3
D1
350
67
  3
D2
350
68
  0
LAYOUT
  5
1E
102
{ACAD_REACTORS
330
1A
102
}
330
1A
100
AcDbPlotSettings
  1

  2
none_device
  4

  6

 40
0.0
 41
0.0
 42
0.0
 43
0.0
 44
0.0
 45
0.0
 46
0.0
 47
0.0
 48
0.0
 49
0.0
140
0.0
141
0.0
142
1.0
143
1.0
 70
   688
 72
     1
 73
     0
 74
     5
  7

 75
    16
147
1.0
148
0.0
149
0.0
100
AcDbLayout
  1
Layout1
 70
     1
 71
     1
 10
0.0
 20
0.0
 11
420.0
 21
297.0
 12
0.0
 22
0.0
 32
0.0
 14
1.0000000000E+20
 24
1.0000000000E+20
 34
1.0000000000E+20
 15
-1.0000000000E+20
 25
-1.0000000000E+20
 35
-1.0000000000E+20
146
0.0
 13
0.0
 23
0.0
 33
0.0
 16
1.0
 26
0.0
 36
0.0
 17
0.0
 27
1.0
 37
0.0
 76
     0
330
1B
  0
LAYOUT
  5
26
102
{ACAD_REACTORS
330
1A
102
}
330
1A
100
AcDbPlotSettings
  1

  2
none_device
  4

  6

 40
0.0
 41
0.0
 42
0.0
 43
0.0
 44
0.0
 45
0.0
 46
0.0
 47
0.0
 48
0.0
 49
0.0
140
0.0
141
0.0
142
1.0
143
1.0
 70
   688
 72
     1
 73
     0
 74
     5
  7

 75
    16
147
1.0
148
0.0
149
0.0
100
AcDbLayout
  1
Layout2
 70
     1
 71
     2
 10
0.0
 20
0.0
 11
0.0
 21
0.0
 12
0.0
 22
0.0
 32
0.0
 14
0.0
 24
0.0
 34
0.0
 15
0.0
 25
0.0
 35
0.0
146
0.0
 13
0.0
 23
0.0
 33
0.0
 16
1.0
 26
0.0
 36
0.0
 17
0.0
 27
1.0
 37
0.0
 76
     0
330
23
  0
LAYOUT
  5
22
102
{ACAD_REACTORS
330
1A
102
}
330
1A
100
AcDbPlotSettings
  1

  2
none_device
  4
ANSI_A_(11.00_x_8.50_Inches)
  6

 40
6.35
 41
19.05
 42
6.35000508
 43
19.05000254
 44
279.4
 45
215.9
 46
133.34999746
 47
88.89999873
 48
0.0
 49
0.0
140
0.0
141
0.0
142
0.08415
143
1.0
 70
  1696
 72
     0
 73
     0
 74
     0
  7

 75
     0
147
0.0179189148
148
-1300.4909072572
149
0.0
100
AcDbLayout
  1
Model
 70
     1
 71
     0
 10
0.0
 20
0.0
 11
420.0
 21
297.0
 12
0.0
 22
0.0
 32
0.0
 14
-50.0
 24
-50.0
 34
0.0
 15
50.0
 25
50.0
 35
0.0
146
0.0
 13
0.0
 23
0.0
 33
0.0
 16
1.0
 26
0.0
 36
0.0
 17
0.0
 27
1.0
 37
0.0
 76
     0
330
1F
331
29
  0
MLINESTYLE
  5
18
102
{ACAD_REACTORS
330
17
102
}
330
17
100
AcDbMlineStyle
  2
Standard
 70
     0
  3

 62
   256
 51
90.0
 52
90.0
 71
     2
 49
0.5
 62
   256
  6
BYLAYER
 49
-0.5
 62
   256
  6
BYLAYER
  0
ACDBPLACEHOLDER
  5
F
102
{ACAD_REACTORS
330
E
102
}
330
E
  0
SCALE
  5
48
102
{ACAD_REACTORS
330
47
102
}
330
47
100
AcDbScale
 70
     0
300
1:1
140
1.0
141
1.0
290
     1
  0
SCALE
  5
49
102
{ACAD_REACTORS
330
47
102
}
330
47
100
AcDbScale
 70
     0
300
1:2
140
1.0
141
2.0
290
     0
  0
SCALE
  5
4A
102
{ACAD_REACTORS
330
47
102
}
330
47
100
AcDbScale
 70
     0
300
1:4
140
1.0
141
4.0
290
     0
  0
SCALE
  5
4B
102
{ACAD_REACTORS
330
47
102
}
330
47
100
AcDbScale
 70
     0
300
1:5
140
1.0
141
5.0
290
     0
  0
SCALE
  5
4C
102
{ACAD_REACTORS
330
47
102
}
330
47
100
AcDbScale
 70
     0
300
1:8
140
1.0
141
8.0
290
     0
  0
SCALE
  5
4D
102
{ACAD_REACTORS
330
47
102
}
330
47
100
AcDbScale
 70
     0
300
1:10
140
1.0
141
10.0
290
     0
  0
SCALE
  5
4E
102
{ACAD_REACTORS
330
47
102
}
330
47
100
AcDbScale
 70
     0
300
1:16
140
1.0
141
16.0
290
     0
  0
SCALE
  5
4F
102
{ACAD_REACTORS
330
47
102
}
330
47
100
AcDbScale
 70
     0
300
1:20
140
1.0
141
20.0
290
     0
  0
SCALE
  5
50
102
{ACAD_REACTORS
330
47
102
}
330
47
100
AcDbScale
 70
     0
300
1:30
140
1.0
141
30.0
290
     0
  0
SCALE
  5
51
102
{ACAD_REACTORS
330
47
102
}
330
47
100
AcDbScale
 70
     0
300
1:40
140
1.0
141
40.0
290
     0
  0
SCALE
  5
52
102
{ACAD_REACTORS
330
47
102
}
330
47
100
AcDbScale
 70
     0
300
1:50
140
1.0
141
50.0
290
     0
  0
SCALE
  5
53
102
{ACAD_REACTORS
330
47
102
}
330
47
100
AcDbScale
 70
     0
300
1:100
140
1.0
141
100.0
290
     0
  0
SCALE
  5
54
102
{ACAD_REACTORS
330
47
102
}
330
47
100
AcDbScale
 70
     0
300
2:1
140
2.0
141
1.0
290
     0
  0
SCALE
  5
55
102
{ACAD_REACTORS
330
47
102
}
330
47
100
AcDbScale
 70
     0
300
4:1
140
4.0
141
1.0
290
     0
  0
SCALE
  5
56
102
{ACAD_REACTORS
330
47
102
}
330
47
100
AcDbScale
 70
     0
300
8:1
140
8.0
141
1.0
290
     0
  0
SCALE
  5
57
102
{ACAD_REACTORS
330
47
102
}
330
47
100
AcDbScale
 70
     0
300
10:1
140
10.0
141
1.0
290
     0
  0
SCALE
  5
58
102
{ACAD_REACTORS
330
47
102
}
330
47
100
AcDbScale
 70
     0
300
100:1
140
100.0
141
1.0
290
     0
  0
SCALE
  5
59
102
{ACAD_REACTORS
330
47
102
}
330
47
100
AcDbScale
 70
     0
300
1/128" = 1'-0"
140
0.0078125
141
12.0
290
     0
  0
SCALE
  5
5A
102
{ACAD_REACTORS
330
47
102
}
330
47
100
AcDbScale
 70
     0
300
1/64" = 1'-0"
140
0.015625
141
12.0
290
     0
  0
SCALE
  5
5B
102
{ACAD_REACTORS
330
47
102
}
330
47
100
AcDbScale
 70
     0
300
1/32" = 1'-0"
140
0.03125
141
12.0
290
     0
  0
SCALE
  5
5C
102
{ACAD_REACTORS
330
47
102
}
330
47
100
AcDbScale
 70
     0
300
1/16" = 1'-0"
140
0.0625
141
12.0
290
     0
  0
SCALE
  5
5D
102
{ACAD_REACTORS
330
47
102
}
330
47
100
AcDbScale
 70
     0
300
3/32" = 1'-0"
140
0.09375
141
12.0
290
     0
  0
SCALE
  5
5E
102
{ACAD_REACTORS
330
47
102
}
330
47
100
AcDbScale
 70
     0
300
1/8" = 1'-0"
140
0.125
141
12.0
290
     0
  0
SCALE
  5
5F
102
{ACAD_REACTORS
330
47
102
}
330
47
100
AcDbScale
 70
     0
300
3/16" = 1'-0"
140
0.1875
141
12.0
290
     0
  0
SCALE
  5
60
102
{ACAD_REACTORS
330
47
102
}
330
47
100
AcDbScale
 70
     0
300
1/4" = 1'-0"
140
0.25
141
12.0
290
     0
  0
SCALE
  5
61
102
{ACAD_REACTORS
330
47
102
}
330
47
100
AcDbScale
 70
     0
300
3/8" = 1'-0"
140
0.375
141
12.0
290
     0
  0
SCALE
  5
62
102
{ACAD_REACTORS
330
47
102
}
330
47
100
AcDbScale
 70
     0
300
1/2" = 1'-0"
140
0.5
141
12.0
290
     0
  0
SCALE
  5
63
102
{ACAD_REACTORS
330
47
102
}
330
47
100
AcDbScale
 70
     0
300
3/4" = 1'-0"
140
0.75
141
12.0
290
     0
  0
SCALE
  5
64
102
{ACAD_REACTORS
330
47
102
}
330
47
100
AcDbScale
 70
     0
300
1" = 1'-0"
140
1.0
141
12.0
290
     0
  0
SCALE
  5
65
102
{ACAD_REACTORS
330
47
102
}
330
47
100
AcDbScale
 70
     0
300
1-1/2" = 1'-0"
140
1.5
141
12.0
290
     0
  0
SCALE
  5
66
102
{ACAD_REACTORS
330
47
102
}
330
47
100
AcDbScale
 70
     0
300
3" = 1'-0"
140
3.0
141
12.0
290
     0
  0
SCALE
  5
67
102
{ACAD_REACTORS
330
47
102
}
330
47
100
AcDbScale
 70
     0
300
6" = 1'-0"
140
6.0
141
12.0
290
     0
  0
SCALE
  5
68
102
{ACAD_REACTORS
330
47
102
}
330
47
100
AcDbScale
 70
     0
300
1'-0" = 1'-0"
140
12.0
141
12.0
290
     0
  0
ENDSEC
  0
EOF
